M48
;DRILL file {KiCad (5.0.0)} date 11/13/18 12:50:52
;FORMAT={-:-/ absolute / inch / decimal}
FMAT,2
INCH,TZ
T1C0.0315
T2C0.0354
T3C0.0394
T4C0.0669
T5C0.1260
%
G90
G05
M72
T1
X6.925Y-3.5
X7.325Y-3.5
X6.925Y-2.7
X7.325Y-2.7
X6.925Y-2.85
X7.325Y-2.85
T2
X7.525Y-3.175
X7.625Y-3.175
X7.525Y-2.825
X7.625Y-2.825
X7.525Y-3.5
X7.625Y-3.5
T3
X4.875Y-2.8
X4.875Y-2.9
X4.875Y-3.
X4.875Y-3.1
X4.875Y-3.2
X4.875Y-3.3
X4.875Y-3.4
X4.875Y-3.5
X4.975Y-2.8
X4.975Y-2.9
X4.975Y-3.
X4.975Y-3.1
X4.975Y-3.2
X4.975Y-3.3
X4.975Y-3.4
X4.975Y-3.5
X4.075Y-2.8
X4.075Y-2.9
X4.075Y-3.
X4.075Y-3.1
X4.075Y-3.2
X4.075Y-3.3
X4.075Y-3.4
X4.075Y-3.5
X4.175Y-2.8
X4.175Y-2.9
X4.175Y-3.
X4.175Y-3.1
X4.175Y-3.2
X4.175Y-3.3
X4.175Y-3.4
X4.175Y-3.5
X3.275Y-2.8
X3.275Y-2.9
X3.275Y-3.
X3.275Y-3.1
X3.275Y-3.2
X3.275Y-3.3
X3.275Y-3.4
X3.275Y-3.5
X3.375Y-2.8
X3.375Y-2.9
X3.375Y-3.
X3.375Y-3.1
X3.375Y-3.2
X3.375Y-3.3
X3.375Y-3.4
X3.375Y-3.5
X5.675Y-2.8
X5.675Y-2.9
X5.675Y-3.
X5.675Y-3.1
X5.675Y-3.2
X5.675Y-3.3
X5.675Y-3.4
X5.675Y-3.5
X5.775Y-2.8
X5.775Y-2.9
X5.775Y-3.
X5.775Y-3.1
X5.775Y-3.2
X5.775Y-3.3
X5.775Y-3.4
X5.775Y-3.5
T4
X2.2813Y-3.5
X2.4687Y-3.5
X6.5063Y-3.
X6.6937Y-3.
X6.5063Y-3.25
X6.6937Y-3.25
X6.5063Y-3.5
X6.6937Y-3.5
X2.2813Y-3.
X2.4687Y-3.
X6.5063Y-2.75
X6.6937Y-2.75
X2.2813Y-2.75
X2.4687Y-2.75
X2.2813Y-3.25
X2.4687Y-3.25
T5
X7.125Y-3.1496
X2.875Y-3.1496
T0
M30
