G04 #@! TF.GenerationSoftware,KiCad,Pcbnew,(5.0.0)*
G04 #@! TF.CreationDate,2018-11-13T12:50:57-08:00*
G04 #@! TF.ProjectId,bus_board,6275735F626F6172642E6B696361645F,rev?*
G04 #@! TF.SameCoordinates,Original*
G04 #@! TF.FileFunction,Legend,Top*
G04 #@! TF.FilePolarity,Positive*
%FSLAX46Y46*%
G04 Gerber Fmt 4.6, Leading zero omitted, Abs format (unit mm)*
G04 Created by KiCad (PCBNEW (5.0.0)) date 11/13/18 12:50:57*
%MOMM*%
%LPD*%
G01*
G04 APERTURE LIST*
%ADD10C,0.200000*%
%ADD11C,0.300000*%
%ADD12C,0.120000*%
%ADD13C,0.150000*%
%ADD14C,6.000000*%
%ADD15R,2.100000X2.100000*%
%ADD16O,2.100000X2.100000*%
%ADD17C,2.200000*%
%ADD18R,2.200000X2.200000*%
%ADD19O,2.000000X2.000000*%
%ADD20C,2.000000*%
%ADD21C,3.400000*%
G04 APERTURE END LIST*
D10*
X138430000Y-71120000D02*
X142240000Y-71120000D01*
X128270000Y-78740000D02*
X131445000Y-78740000D01*
X128270000Y-73660000D02*
X131445000Y-73660000D01*
X131445000Y-71120000D02*
X128270000Y-71120000D01*
X138430000Y-73660000D02*
X142240000Y-73660000D01*
X131445000Y-76200000D02*
X128270000Y-76200000D01*
X131445000Y-83820000D02*
X128270000Y-83820000D01*
X128270000Y-81280000D02*
X130810000Y-81280000D01*
X139065000Y-86360000D02*
X142240000Y-86360000D01*
X130810000Y-83820000D02*
X130810000Y-86360000D01*
X130810000Y-81280000D02*
X130810000Y-83820000D01*
X128270000Y-88900000D02*
X131445000Y-88900000D01*
X130810000Y-86360000D02*
X128270000Y-86360000D01*
X139065000Y-81280000D02*
X139065000Y-86360000D01*
X142240000Y-81280000D02*
X139065000Y-81280000D01*
D11*
X134112142Y-83070000D02*
X133969285Y-82998571D01*
X133755000Y-82998571D01*
X133540714Y-83070000D01*
X133397857Y-83212857D01*
X133326428Y-83355714D01*
X133255000Y-83641428D01*
X133255000Y-83855714D01*
X133326428Y-84141428D01*
X133397857Y-84284285D01*
X133540714Y-84427142D01*
X133755000Y-84498571D01*
X133897857Y-84498571D01*
X134112142Y-84427142D01*
X134183571Y-84355714D01*
X134183571Y-83855714D01*
X133897857Y-83855714D01*
X134826428Y-84498571D02*
X134826428Y-82998571D01*
X135683571Y-84498571D01*
X135683571Y-82998571D01*
X136397857Y-84498571D02*
X136397857Y-82998571D01*
X136755000Y-82998571D01*
X136969285Y-83070000D01*
X137112142Y-83212857D01*
X137183571Y-83355714D01*
X137255000Y-83641428D01*
X137255000Y-83855714D01*
X137183571Y-84141428D01*
X137112142Y-84284285D01*
X136969285Y-84427142D01*
X136755000Y-84498571D01*
X136397857Y-84498571D01*
X131977142Y-89007142D02*
X133120000Y-89007142D01*
X134620000Y-89578571D02*
X133762857Y-89578571D01*
X134191428Y-89578571D02*
X134191428Y-88078571D01*
X134048571Y-88292857D01*
X133905714Y-88435714D01*
X133762857Y-88507142D01*
X135191428Y-88221428D02*
X135262857Y-88150000D01*
X135405714Y-88078571D01*
X135762857Y-88078571D01*
X135905714Y-88150000D01*
X135977142Y-88221428D01*
X136048571Y-88364285D01*
X136048571Y-88507142D01*
X135977142Y-88721428D01*
X135120000Y-89578571D01*
X136048571Y-89578571D01*
X136477142Y-88078571D02*
X136977142Y-89578571D01*
X137477142Y-88078571D01*
D10*
X142240000Y-78740000D02*
X138430000Y-78740000D01*
X138430000Y-76200000D02*
X142240000Y-76200000D01*
X142240000Y-88900000D02*
X138430000Y-88900000D01*
X142240000Y-83820000D02*
X138430000Y-83820000D01*
D11*
X135076428Y-74195714D02*
X135005000Y-74267142D01*
X134790714Y-74338571D01*
X134647857Y-74338571D01*
X134433571Y-74267142D01*
X134290714Y-74124285D01*
X134219285Y-73981428D01*
X134147857Y-73695714D01*
X134147857Y-73481428D01*
X134219285Y-73195714D01*
X134290714Y-73052857D01*
X134433571Y-72910000D01*
X134647857Y-72838571D01*
X134790714Y-72838571D01*
X135005000Y-72910000D01*
X135076428Y-72981428D01*
X135505000Y-72838571D02*
X136005000Y-74338571D01*
X136505000Y-72838571D01*
X132691428Y-76307142D02*
X133834285Y-76307142D01*
X133262857Y-76878571D02*
X133262857Y-75735714D01*
X135262857Y-75378571D02*
X134548571Y-75378571D01*
X134477142Y-76092857D01*
X134548571Y-76021428D01*
X134691428Y-75950000D01*
X135048571Y-75950000D01*
X135191428Y-76021428D01*
X135262857Y-76092857D01*
X135334285Y-76235714D01*
X135334285Y-76592857D01*
X135262857Y-76735714D01*
X135191428Y-76807142D01*
X135048571Y-76878571D01*
X134691428Y-76878571D01*
X134548571Y-76807142D01*
X134477142Y-76735714D01*
X135762857Y-75378571D02*
X136262857Y-76878571D01*
X136762857Y-75378571D01*
X133755000Y-70370000D02*
X133612142Y-70298571D01*
X133397857Y-70298571D01*
X133183571Y-70370000D01*
X133040714Y-70512857D01*
X132969285Y-70655714D01*
X132897857Y-70941428D01*
X132897857Y-71155714D01*
X132969285Y-71441428D01*
X133040714Y-71584285D01*
X133183571Y-71727142D01*
X133397857Y-71798571D01*
X133540714Y-71798571D01*
X133755000Y-71727142D01*
X133826428Y-71655714D01*
X133826428Y-71155714D01*
X133540714Y-71155714D01*
X134397857Y-71370000D02*
X135112142Y-71370000D01*
X134255000Y-71798571D02*
X134755000Y-70298571D01*
X135255000Y-71798571D01*
X135540714Y-70298571D02*
X136397857Y-70298571D01*
X135969285Y-71798571D02*
X135969285Y-70298571D01*
X136897857Y-71012857D02*
X137397857Y-71012857D01*
X137612142Y-71798571D02*
X136897857Y-71798571D01*
X136897857Y-70298571D01*
X137612142Y-70298571D01*
X131977142Y-78847142D02*
X133120000Y-78847142D01*
X132548571Y-79418571D02*
X132548571Y-78275714D01*
X134620000Y-79418571D02*
X133762857Y-79418571D01*
X134191428Y-79418571D02*
X134191428Y-77918571D01*
X134048571Y-78132857D01*
X133905714Y-78275714D01*
X133762857Y-78347142D01*
X135191428Y-78061428D02*
X135262857Y-77990000D01*
X135405714Y-77918571D01*
X135762857Y-77918571D01*
X135905714Y-77990000D01*
X135977142Y-78061428D01*
X136048571Y-78204285D01*
X136048571Y-78347142D01*
X135977142Y-78561428D01*
X135120000Y-79418571D01*
X136048571Y-79418571D01*
X136477142Y-77918571D02*
X136977142Y-79418571D01*
X137477142Y-77918571D01*
D10*
X118110000Y-71120000D02*
X121920000Y-71120000D01*
X107950000Y-78740000D02*
X111125000Y-78740000D01*
X107950000Y-73660000D02*
X111125000Y-73660000D01*
X111125000Y-71120000D02*
X107950000Y-71120000D01*
X118110000Y-73660000D02*
X121920000Y-73660000D01*
X111125000Y-76200000D02*
X107950000Y-76200000D01*
X111125000Y-83820000D02*
X107950000Y-83820000D01*
X107950000Y-81280000D02*
X110490000Y-81280000D01*
X118745000Y-86360000D02*
X121920000Y-86360000D01*
X110490000Y-83820000D02*
X110490000Y-86360000D01*
X110490000Y-81280000D02*
X110490000Y-83820000D01*
X107950000Y-88900000D02*
X111125000Y-88900000D01*
X110490000Y-86360000D02*
X107950000Y-86360000D01*
X118745000Y-81280000D02*
X118745000Y-86360000D01*
X121920000Y-81280000D02*
X118745000Y-81280000D01*
D11*
X113792142Y-83070000D02*
X113649285Y-82998571D01*
X113435000Y-82998571D01*
X113220714Y-83070000D01*
X113077857Y-83212857D01*
X113006428Y-83355714D01*
X112935000Y-83641428D01*
X112935000Y-83855714D01*
X113006428Y-84141428D01*
X113077857Y-84284285D01*
X113220714Y-84427142D01*
X113435000Y-84498571D01*
X113577857Y-84498571D01*
X113792142Y-84427142D01*
X113863571Y-84355714D01*
X113863571Y-83855714D01*
X113577857Y-83855714D01*
X114506428Y-84498571D02*
X114506428Y-82998571D01*
X115363571Y-84498571D01*
X115363571Y-82998571D01*
X116077857Y-84498571D02*
X116077857Y-82998571D01*
X116435000Y-82998571D01*
X116649285Y-83070000D01*
X116792142Y-83212857D01*
X116863571Y-83355714D01*
X116935000Y-83641428D01*
X116935000Y-83855714D01*
X116863571Y-84141428D01*
X116792142Y-84284285D01*
X116649285Y-84427142D01*
X116435000Y-84498571D01*
X116077857Y-84498571D01*
X111657142Y-89007142D02*
X112800000Y-89007142D01*
X114300000Y-89578571D02*
X113442857Y-89578571D01*
X113871428Y-89578571D02*
X113871428Y-88078571D01*
X113728571Y-88292857D01*
X113585714Y-88435714D01*
X113442857Y-88507142D01*
X114871428Y-88221428D02*
X114942857Y-88150000D01*
X115085714Y-88078571D01*
X115442857Y-88078571D01*
X115585714Y-88150000D01*
X115657142Y-88221428D01*
X115728571Y-88364285D01*
X115728571Y-88507142D01*
X115657142Y-88721428D01*
X114800000Y-89578571D01*
X115728571Y-89578571D01*
X116157142Y-88078571D02*
X116657142Y-89578571D01*
X117157142Y-88078571D01*
D10*
X121920000Y-78740000D02*
X118110000Y-78740000D01*
X118110000Y-76200000D02*
X121920000Y-76200000D01*
X121920000Y-88900000D02*
X118110000Y-88900000D01*
X121920000Y-83820000D02*
X118110000Y-83820000D01*
D11*
X114756428Y-74195714D02*
X114685000Y-74267142D01*
X114470714Y-74338571D01*
X114327857Y-74338571D01*
X114113571Y-74267142D01*
X113970714Y-74124285D01*
X113899285Y-73981428D01*
X113827857Y-73695714D01*
X113827857Y-73481428D01*
X113899285Y-73195714D01*
X113970714Y-73052857D01*
X114113571Y-72910000D01*
X114327857Y-72838571D01*
X114470714Y-72838571D01*
X114685000Y-72910000D01*
X114756428Y-72981428D01*
X115185000Y-72838571D02*
X115685000Y-74338571D01*
X116185000Y-72838571D01*
X112371428Y-76307142D02*
X113514285Y-76307142D01*
X112942857Y-76878571D02*
X112942857Y-75735714D01*
X114942857Y-75378571D02*
X114228571Y-75378571D01*
X114157142Y-76092857D01*
X114228571Y-76021428D01*
X114371428Y-75950000D01*
X114728571Y-75950000D01*
X114871428Y-76021428D01*
X114942857Y-76092857D01*
X115014285Y-76235714D01*
X115014285Y-76592857D01*
X114942857Y-76735714D01*
X114871428Y-76807142D01*
X114728571Y-76878571D01*
X114371428Y-76878571D01*
X114228571Y-76807142D01*
X114157142Y-76735714D01*
X115442857Y-75378571D02*
X115942857Y-76878571D01*
X116442857Y-75378571D01*
X113435000Y-70370000D02*
X113292142Y-70298571D01*
X113077857Y-70298571D01*
X112863571Y-70370000D01*
X112720714Y-70512857D01*
X112649285Y-70655714D01*
X112577857Y-70941428D01*
X112577857Y-71155714D01*
X112649285Y-71441428D01*
X112720714Y-71584285D01*
X112863571Y-71727142D01*
X113077857Y-71798571D01*
X113220714Y-71798571D01*
X113435000Y-71727142D01*
X113506428Y-71655714D01*
X113506428Y-71155714D01*
X113220714Y-71155714D01*
X114077857Y-71370000D02*
X114792142Y-71370000D01*
X113935000Y-71798571D02*
X114435000Y-70298571D01*
X114935000Y-71798571D01*
X115220714Y-70298571D02*
X116077857Y-70298571D01*
X115649285Y-71798571D02*
X115649285Y-70298571D01*
X116577857Y-71012857D02*
X117077857Y-71012857D01*
X117292142Y-71798571D02*
X116577857Y-71798571D01*
X116577857Y-70298571D01*
X117292142Y-70298571D01*
X111657142Y-78847142D02*
X112800000Y-78847142D01*
X112228571Y-79418571D02*
X112228571Y-78275714D01*
X114300000Y-79418571D02*
X113442857Y-79418571D01*
X113871428Y-79418571D02*
X113871428Y-77918571D01*
X113728571Y-78132857D01*
X113585714Y-78275714D01*
X113442857Y-78347142D01*
X114871428Y-78061428D02*
X114942857Y-77990000D01*
X115085714Y-77918571D01*
X115442857Y-77918571D01*
X115585714Y-77990000D01*
X115657142Y-78061428D01*
X115728571Y-78204285D01*
X115728571Y-78347142D01*
X115657142Y-78561428D01*
X114800000Y-79418571D01*
X115728571Y-79418571D01*
X116157142Y-77918571D02*
X116657142Y-79418571D01*
X117157142Y-77918571D01*
D10*
X98425000Y-86360000D02*
X101600000Y-86360000D01*
X98425000Y-81280000D02*
X98425000Y-86360000D01*
X101600000Y-81280000D02*
X98425000Y-81280000D01*
X90170000Y-86360000D02*
X87630000Y-86360000D01*
X90170000Y-83820000D02*
X90170000Y-86360000D01*
X90170000Y-81280000D02*
X90170000Y-83820000D01*
X87630000Y-81280000D02*
X90170000Y-81280000D01*
X90805000Y-83820000D02*
X87630000Y-83820000D01*
X87630000Y-88900000D02*
X90805000Y-88900000D01*
X101600000Y-88900000D02*
X97790000Y-88900000D01*
X101600000Y-83820000D02*
X97790000Y-83820000D01*
X101600000Y-78740000D02*
X97790000Y-78740000D01*
X97790000Y-76200000D02*
X101600000Y-76200000D01*
X97790000Y-73660000D02*
X101600000Y-73660000D01*
X97790000Y-71120000D02*
X101600000Y-71120000D01*
X90805000Y-71120000D02*
X87630000Y-71120000D01*
X87630000Y-73660000D02*
X90805000Y-73660000D01*
X90805000Y-76200000D02*
X87630000Y-76200000D01*
X87630000Y-78740000D02*
X90805000Y-78740000D01*
D11*
X91337142Y-89007142D02*
X92480000Y-89007142D01*
X93980000Y-89578571D02*
X93122857Y-89578571D01*
X93551428Y-89578571D02*
X93551428Y-88078571D01*
X93408571Y-88292857D01*
X93265714Y-88435714D01*
X93122857Y-88507142D01*
X94551428Y-88221428D02*
X94622857Y-88150000D01*
X94765714Y-88078571D01*
X95122857Y-88078571D01*
X95265714Y-88150000D01*
X95337142Y-88221428D01*
X95408571Y-88364285D01*
X95408571Y-88507142D01*
X95337142Y-88721428D01*
X94480000Y-89578571D01*
X95408571Y-89578571D01*
X95837142Y-88078571D02*
X96337142Y-89578571D01*
X96837142Y-88078571D01*
X93472142Y-83070000D02*
X93329285Y-82998571D01*
X93115000Y-82998571D01*
X92900714Y-83070000D01*
X92757857Y-83212857D01*
X92686428Y-83355714D01*
X92615000Y-83641428D01*
X92615000Y-83855714D01*
X92686428Y-84141428D01*
X92757857Y-84284285D01*
X92900714Y-84427142D01*
X93115000Y-84498571D01*
X93257857Y-84498571D01*
X93472142Y-84427142D01*
X93543571Y-84355714D01*
X93543571Y-83855714D01*
X93257857Y-83855714D01*
X94186428Y-84498571D02*
X94186428Y-82998571D01*
X95043571Y-84498571D01*
X95043571Y-82998571D01*
X95757857Y-84498571D02*
X95757857Y-82998571D01*
X96115000Y-82998571D01*
X96329285Y-83070000D01*
X96472142Y-83212857D01*
X96543571Y-83355714D01*
X96615000Y-83641428D01*
X96615000Y-83855714D01*
X96543571Y-84141428D01*
X96472142Y-84284285D01*
X96329285Y-84427142D01*
X96115000Y-84498571D01*
X95757857Y-84498571D01*
X91337142Y-78847142D02*
X92480000Y-78847142D01*
X91908571Y-79418571D02*
X91908571Y-78275714D01*
X93980000Y-79418571D02*
X93122857Y-79418571D01*
X93551428Y-79418571D02*
X93551428Y-77918571D01*
X93408571Y-78132857D01*
X93265714Y-78275714D01*
X93122857Y-78347142D01*
X94551428Y-78061428D02*
X94622857Y-77990000D01*
X94765714Y-77918571D01*
X95122857Y-77918571D01*
X95265714Y-77990000D01*
X95337142Y-78061428D01*
X95408571Y-78204285D01*
X95408571Y-78347142D01*
X95337142Y-78561428D01*
X94480000Y-79418571D01*
X95408571Y-79418571D01*
X95837142Y-77918571D02*
X96337142Y-79418571D01*
X96837142Y-77918571D01*
X92051428Y-76307142D02*
X93194285Y-76307142D01*
X92622857Y-76878571D02*
X92622857Y-75735714D01*
X94622857Y-75378571D02*
X93908571Y-75378571D01*
X93837142Y-76092857D01*
X93908571Y-76021428D01*
X94051428Y-75950000D01*
X94408571Y-75950000D01*
X94551428Y-76021428D01*
X94622857Y-76092857D01*
X94694285Y-76235714D01*
X94694285Y-76592857D01*
X94622857Y-76735714D01*
X94551428Y-76807142D01*
X94408571Y-76878571D01*
X94051428Y-76878571D01*
X93908571Y-76807142D01*
X93837142Y-76735714D01*
X95122857Y-75378571D02*
X95622857Y-76878571D01*
X96122857Y-75378571D01*
X94436428Y-74195714D02*
X94365000Y-74267142D01*
X94150714Y-74338571D01*
X94007857Y-74338571D01*
X93793571Y-74267142D01*
X93650714Y-74124285D01*
X93579285Y-73981428D01*
X93507857Y-73695714D01*
X93507857Y-73481428D01*
X93579285Y-73195714D01*
X93650714Y-73052857D01*
X93793571Y-72910000D01*
X94007857Y-72838571D01*
X94150714Y-72838571D01*
X94365000Y-72910000D01*
X94436428Y-72981428D01*
X94865000Y-72838571D02*
X95365000Y-74338571D01*
X95865000Y-72838571D01*
X93115000Y-70370000D02*
X92972142Y-70298571D01*
X92757857Y-70298571D01*
X92543571Y-70370000D01*
X92400714Y-70512857D01*
X92329285Y-70655714D01*
X92257857Y-70941428D01*
X92257857Y-71155714D01*
X92329285Y-71441428D01*
X92400714Y-71584285D01*
X92543571Y-71727142D01*
X92757857Y-71798571D01*
X92900714Y-71798571D01*
X93115000Y-71727142D01*
X93186428Y-71655714D01*
X93186428Y-71155714D01*
X92900714Y-71155714D01*
X93757857Y-71370000D02*
X94472142Y-71370000D01*
X93615000Y-71798571D02*
X94115000Y-70298571D01*
X94615000Y-71798571D01*
X94900714Y-70298571D02*
X95757857Y-70298571D01*
X95329285Y-71798571D02*
X95329285Y-70298571D01*
X96257857Y-71012857D02*
X96757857Y-71012857D01*
X96972142Y-71798571D02*
X96257857Y-71798571D01*
X96257857Y-70298571D01*
X96972142Y-70298571D01*
D12*
G04 #@! TO.C,J5*
X81855000Y-90230000D02*
X87055000Y-90230000D01*
X81855000Y-72390000D02*
X81855000Y-90230000D01*
X87055000Y-69790000D02*
X87055000Y-90230000D01*
X81855000Y-72390000D02*
X84455000Y-72390000D01*
X84455000Y-72390000D02*
X84455000Y-69790000D01*
X84455000Y-69790000D02*
X87055000Y-69790000D01*
X81855000Y-71120000D02*
X81855000Y-69790000D01*
X81855000Y-69790000D02*
X83185000Y-69790000D01*
G04 #@! TO.C,D2*
X193965000Y-79565000D02*
X193965000Y-79409000D01*
X193965000Y-81881000D02*
X193965000Y-81725000D01*
X191363870Y-79565163D02*
G75*
G02X193445961Y-79565000I1041130J-1079837D01*
G01*
X191363870Y-81724837D02*
G75*
G03X193445961Y-81725000I1041130J1079837D01*
G01*
X190732665Y-79566392D02*
G75*
G02X193965000Y-79409484I1672335J-1078608D01*
G01*
X190732665Y-81723608D02*
G75*
G03X193965000Y-81880516I1672335J1078608D01*
G01*
G04 #@! TO.C,D3*
X194077335Y-87821392D02*
G75*
G03X190845000Y-87664484I-1672335J-1078608D01*
G01*
X194077335Y-89978608D02*
G75*
G02X190845000Y-90135516I-1672335J1078608D01*
G01*
X193446130Y-87820163D02*
G75*
G03X191364039Y-87820000I-1041130J-1079837D01*
G01*
X193446130Y-89979837D02*
G75*
G02X191364039Y-89980000I-1041130J1079837D01*
G01*
X190845000Y-87664000D02*
X190845000Y-87820000D01*
X190845000Y-89980000D02*
X190845000Y-90136000D01*
G04 #@! TO.C,D1*
X193965000Y-70675000D02*
X193965000Y-70519000D01*
X193965000Y-72991000D02*
X193965000Y-72835000D01*
X191363870Y-70675163D02*
G75*
G02X193445961Y-70675000I1041130J-1079837D01*
G01*
X191363870Y-72834837D02*
G75*
G03X193445961Y-72835000I1041130J1079837D01*
G01*
X190732665Y-70676392D02*
G75*
G02X193965000Y-70519484I1672335J-1078608D01*
G01*
X190732665Y-72833608D02*
G75*
G03X193965000Y-72990516I1672335J1078608D01*
G01*
G04 #@! TO.C,J6*
X102175000Y-69790000D02*
X103505000Y-69790000D01*
X102175000Y-71120000D02*
X102175000Y-69790000D01*
X104775000Y-69790000D02*
X107375000Y-69790000D01*
X104775000Y-72390000D02*
X104775000Y-69790000D01*
X102175000Y-72390000D02*
X104775000Y-72390000D01*
X107375000Y-69790000D02*
X107375000Y-90230000D01*
X102175000Y-72390000D02*
X102175000Y-90230000D01*
X102175000Y-90230000D02*
X107375000Y-90230000D01*
G04 #@! TO.C,J8*
X122495000Y-90230000D02*
X127695000Y-90230000D01*
X122495000Y-72390000D02*
X122495000Y-90230000D01*
X127695000Y-69790000D02*
X127695000Y-90230000D01*
X122495000Y-72390000D02*
X125095000Y-72390000D01*
X125095000Y-72390000D02*
X125095000Y-69790000D01*
X125095000Y-69790000D02*
X127695000Y-69790000D01*
X122495000Y-71120000D02*
X122495000Y-69790000D01*
X122495000Y-69790000D02*
X123825000Y-69790000D01*
G04 #@! TO.C,J7*
X142815000Y-69790000D02*
X144145000Y-69790000D01*
X142815000Y-71120000D02*
X142815000Y-69790000D01*
X145415000Y-69790000D02*
X148015000Y-69790000D01*
X145415000Y-72390000D02*
X145415000Y-69790000D01*
X142815000Y-72390000D02*
X145415000Y-72390000D01*
X148015000Y-69790000D02*
X148015000Y-90230000D01*
X142815000Y-72390000D02*
X142815000Y-90230000D01*
X142815000Y-90230000D02*
X148015000Y-90230000D01*
G04 #@! TO.C,R2*
X185075000Y-72390000D02*
X184185000Y-72390000D01*
X176875000Y-72390000D02*
X177765000Y-72390000D01*
X184185000Y-71080000D02*
X177765000Y-71080000D01*
X184185000Y-73700000D02*
X184185000Y-71080000D01*
X177765000Y-73700000D02*
X184185000Y-73700000D01*
X177765000Y-71080000D02*
X177765000Y-73700000D01*
G04 #@! TO.C,R3*
X177765000Y-87590000D02*
X177765000Y-90210000D01*
X177765000Y-90210000D02*
X184185000Y-90210000D01*
X184185000Y-90210000D02*
X184185000Y-87590000D01*
X184185000Y-87590000D02*
X177765000Y-87590000D01*
X176875000Y-88900000D02*
X177765000Y-88900000D01*
X185075000Y-88900000D02*
X184185000Y-88900000D01*
G04 #@! TO.C,R1*
X185075000Y-68580000D02*
X184185000Y-68580000D01*
X176875000Y-68580000D02*
X177765000Y-68580000D01*
X184185000Y-67270000D02*
X177765000Y-67270000D01*
X184185000Y-69890000D02*
X184185000Y-67270000D01*
X177765000Y-69890000D02*
X184185000Y-69890000D01*
X177765000Y-67270000D02*
X177765000Y-69890000D01*
D13*
G04 #@! TO.C,+12V*
X65405000Y-78740000D02*
X55245000Y-78740000D01*
X65405000Y-73660000D02*
X65405000Y-78740000D01*
X55245000Y-73660000D02*
X65405000Y-73660000D01*
X55245000Y-78740000D02*
X55245000Y-73660000D01*
G04 #@! TO.C,+5V*
X55245000Y-72390000D02*
X55245000Y-67310000D01*
X55245000Y-67310000D02*
X65405000Y-67310000D01*
X65405000Y-67310000D02*
X65405000Y-72390000D01*
X65405000Y-72390000D02*
X55245000Y-72390000D01*
X172720000Y-72390000D02*
X162560000Y-72390000D01*
X172720000Y-67310000D02*
X172720000Y-72390000D01*
X162560000Y-67310000D02*
X172720000Y-67310000D01*
X162560000Y-72390000D02*
X162560000Y-67310000D01*
G04 #@! TO.C,+12V*
X162560000Y-78740000D02*
X162560000Y-73660000D01*
X162560000Y-73660000D02*
X172720000Y-73660000D01*
X172720000Y-73660000D02*
X172720000Y-78740000D01*
X172720000Y-78740000D02*
X162560000Y-78740000D01*
G04 #@! TO.C,GND*
X172720000Y-85090000D02*
X162560000Y-85090000D01*
X172720000Y-80010000D02*
X172720000Y-85090000D01*
X162560000Y-80010000D02*
X172720000Y-80010000D01*
X162560000Y-85090000D02*
X162560000Y-80010000D01*
G04 #@! TO.C,-12V*
X162560000Y-91440000D02*
X162560000Y-86360000D01*
X162560000Y-86360000D02*
X172720000Y-86360000D01*
X172720000Y-86360000D02*
X172720000Y-91440000D01*
X172720000Y-91440000D02*
X162560000Y-91440000D01*
X65405000Y-91440000D02*
X55245000Y-91440000D01*
X65405000Y-86360000D02*
X65405000Y-91440000D01*
X55245000Y-86360000D02*
X65405000Y-86360000D01*
X55245000Y-91440000D02*
X55245000Y-86360000D01*
G04 #@! TO.C,GND*
X55245000Y-85090000D02*
X55245000Y-80010000D01*
X55245000Y-80010000D02*
X65405000Y-80010000D01*
X65405000Y-80010000D02*
X65405000Y-85090000D01*
X65405000Y-85090000D02*
X55245000Y-85090000D01*
G04 #@! TO.C,R2*
X180808333Y-72842380D02*
X180475000Y-72366190D01*
X180236904Y-72842380D02*
X180236904Y-71842380D01*
X180617857Y-71842380D01*
X180713095Y-71890000D01*
X180760714Y-71937619D01*
X180808333Y-72032857D01*
X180808333Y-72175714D01*
X180760714Y-72270952D01*
X180713095Y-72318571D01*
X180617857Y-72366190D01*
X180236904Y-72366190D01*
X181189285Y-71937619D02*
X181236904Y-71890000D01*
X181332142Y-71842380D01*
X181570238Y-71842380D01*
X181665476Y-71890000D01*
X181713095Y-71937619D01*
X181760714Y-72032857D01*
X181760714Y-72128095D01*
X181713095Y-72270952D01*
X181141666Y-72842380D01*
X181760714Y-72842380D01*
G04 #@! TO.C,R3*
X180808333Y-89352380D02*
X180475000Y-88876190D01*
X180236904Y-89352380D02*
X180236904Y-88352380D01*
X180617857Y-88352380D01*
X180713095Y-88400000D01*
X180760714Y-88447619D01*
X180808333Y-88542857D01*
X180808333Y-88685714D01*
X180760714Y-88780952D01*
X180713095Y-88828571D01*
X180617857Y-88876190D01*
X180236904Y-88876190D01*
X181141666Y-88352380D02*
X181760714Y-88352380D01*
X181427380Y-88733333D01*
X181570238Y-88733333D01*
X181665476Y-88780952D01*
X181713095Y-88828571D01*
X181760714Y-88923809D01*
X181760714Y-89161904D01*
X181713095Y-89257142D01*
X181665476Y-89304761D01*
X181570238Y-89352380D01*
X181284523Y-89352380D01*
X181189285Y-89304761D01*
X181141666Y-89257142D01*
G04 #@! TO.C,R1*
X180808333Y-69032380D02*
X180475000Y-68556190D01*
X180236904Y-69032380D02*
X180236904Y-68032380D01*
X180617857Y-68032380D01*
X180713095Y-68080000D01*
X180760714Y-68127619D01*
X180808333Y-68222857D01*
X180808333Y-68365714D01*
X180760714Y-68460952D01*
X180713095Y-68508571D01*
X180617857Y-68556190D01*
X180236904Y-68556190D01*
X181760714Y-69032380D02*
X181189285Y-69032380D01*
X181475000Y-69032380D02*
X181475000Y-68032380D01*
X181379761Y-68175238D01*
X181284523Y-68270476D01*
X181189285Y-68318095D01*
G04 #@! TO.C,+12V*
X54046428Y-77961904D02*
X54046428Y-77200000D01*
X54427380Y-77580952D02*
X53665476Y-77580952D01*
X54427380Y-76200000D02*
X54427380Y-76771428D01*
X54427380Y-76485714D02*
X53427380Y-76485714D01*
X53570238Y-76580952D01*
X53665476Y-76676190D01*
X53713095Y-76771428D01*
X53522619Y-75819047D02*
X53475000Y-75771428D01*
X53427380Y-75676190D01*
X53427380Y-75438095D01*
X53475000Y-75342857D01*
X53522619Y-75295238D01*
X53617857Y-75247619D01*
X53713095Y-75247619D01*
X53855952Y-75295238D01*
X54427380Y-75866666D01*
X54427380Y-75247619D01*
X53427380Y-74961904D02*
X54427380Y-74628571D01*
X53427380Y-74295238D01*
G04 #@! TO.C,+5V*
X54046428Y-71135714D02*
X54046428Y-70373809D01*
X54427380Y-70754761D02*
X53665476Y-70754761D01*
X53427380Y-69421428D02*
X53427380Y-69897619D01*
X53903571Y-69945238D01*
X53855952Y-69897619D01*
X53808333Y-69802380D01*
X53808333Y-69564285D01*
X53855952Y-69469047D01*
X53903571Y-69421428D01*
X53998809Y-69373809D01*
X54236904Y-69373809D01*
X54332142Y-69421428D01*
X54379761Y-69469047D01*
X54427380Y-69564285D01*
X54427380Y-69802380D01*
X54379761Y-69897619D01*
X54332142Y-69945238D01*
X53427380Y-69088095D02*
X54427380Y-68754761D01*
X53427380Y-68421428D01*
X160726428Y-71770714D02*
X160726428Y-71008809D01*
X161107380Y-71389761D02*
X160345476Y-71389761D01*
X160107380Y-70056428D02*
X160107380Y-70532619D01*
X160583571Y-70580238D01*
X160535952Y-70532619D01*
X160488333Y-70437380D01*
X160488333Y-70199285D01*
X160535952Y-70104047D01*
X160583571Y-70056428D01*
X160678809Y-70008809D01*
X160916904Y-70008809D01*
X161012142Y-70056428D01*
X161059761Y-70104047D01*
X161107380Y-70199285D01*
X161107380Y-70437380D01*
X161059761Y-70532619D01*
X161012142Y-70580238D01*
X160107380Y-69723095D02*
X161107380Y-69389761D01*
X160107380Y-69056428D01*
G04 #@! TO.C,+12V*
X160726428Y-77961904D02*
X160726428Y-77200000D01*
X161107380Y-77580952D02*
X160345476Y-77580952D01*
X161107380Y-76200000D02*
X161107380Y-76771428D01*
X161107380Y-76485714D02*
X160107380Y-76485714D01*
X160250238Y-76580952D01*
X160345476Y-76676190D01*
X160393095Y-76771428D01*
X160202619Y-75819047D02*
X160155000Y-75771428D01*
X160107380Y-75676190D01*
X160107380Y-75438095D01*
X160155000Y-75342857D01*
X160202619Y-75295238D01*
X160297857Y-75247619D01*
X160393095Y-75247619D01*
X160535952Y-75295238D01*
X161107380Y-75866666D01*
X161107380Y-75247619D01*
X160107380Y-74961904D02*
X161107380Y-74628571D01*
X160107380Y-74295238D01*
G04 #@! TO.C,GND*
X160155000Y-83311904D02*
X160107380Y-83407142D01*
X160107380Y-83550000D01*
X160155000Y-83692857D01*
X160250238Y-83788095D01*
X160345476Y-83835714D01*
X160535952Y-83883333D01*
X160678809Y-83883333D01*
X160869285Y-83835714D01*
X160964523Y-83788095D01*
X161059761Y-83692857D01*
X161107380Y-83550000D01*
X161107380Y-83454761D01*
X161059761Y-83311904D01*
X161012142Y-83264285D01*
X160678809Y-83264285D01*
X160678809Y-83454761D01*
X161107380Y-82835714D02*
X160107380Y-82835714D01*
X161107380Y-82264285D01*
X160107380Y-82264285D01*
X161107380Y-81788095D02*
X160107380Y-81788095D01*
X160107380Y-81550000D01*
X160155000Y-81407142D01*
X160250238Y-81311904D01*
X160345476Y-81264285D01*
X160535952Y-81216666D01*
X160678809Y-81216666D01*
X160869285Y-81264285D01*
X160964523Y-81311904D01*
X161059761Y-81407142D01*
X161107380Y-81550000D01*
X161107380Y-81788095D01*
G04 #@! TO.C,-12V*
X160726428Y-90661904D02*
X160726428Y-89900000D01*
X161107380Y-88900000D02*
X161107380Y-89471428D01*
X161107380Y-89185714D02*
X160107380Y-89185714D01*
X160250238Y-89280952D01*
X160345476Y-89376190D01*
X160393095Y-89471428D01*
X160202619Y-88519047D02*
X160155000Y-88471428D01*
X160107380Y-88376190D01*
X160107380Y-88138095D01*
X160155000Y-88042857D01*
X160202619Y-87995238D01*
X160297857Y-87947619D01*
X160393095Y-87947619D01*
X160535952Y-87995238D01*
X161107380Y-88566666D01*
X161107380Y-87947619D01*
X160107380Y-87661904D02*
X161107380Y-87328571D01*
X160107380Y-86995238D01*
X54046428Y-90661904D02*
X54046428Y-89900000D01*
X54427380Y-88900000D02*
X54427380Y-89471428D01*
X54427380Y-89185714D02*
X53427380Y-89185714D01*
X53570238Y-89280952D01*
X53665476Y-89376190D01*
X53713095Y-89471428D01*
X53522619Y-88519047D02*
X53475000Y-88471428D01*
X53427380Y-88376190D01*
X53427380Y-88138095D01*
X53475000Y-88042857D01*
X53522619Y-87995238D01*
X53617857Y-87947619D01*
X53713095Y-87947619D01*
X53855952Y-87995238D01*
X54427380Y-88566666D01*
X54427380Y-87947619D01*
X53427380Y-87661904D02*
X54427380Y-87328571D01*
X53427380Y-86995238D01*
G04 #@! TO.C,GND*
X53475000Y-83311904D02*
X53427380Y-83407142D01*
X53427380Y-83550000D01*
X53475000Y-83692857D01*
X53570238Y-83788095D01*
X53665476Y-83835714D01*
X53855952Y-83883333D01*
X53998809Y-83883333D01*
X54189285Y-83835714D01*
X54284523Y-83788095D01*
X54379761Y-83692857D01*
X54427380Y-83550000D01*
X54427380Y-83454761D01*
X54379761Y-83311904D01*
X54332142Y-83264285D01*
X53998809Y-83264285D01*
X53998809Y-83454761D01*
X54427380Y-82835714D02*
X53427380Y-82835714D01*
X54427380Y-82264285D01*
X53427380Y-82264285D01*
X54427380Y-81788095D02*
X53427380Y-81788095D01*
X53427380Y-81550000D01*
X53475000Y-81407142D01*
X53570238Y-81311904D01*
X53665476Y-81264285D01*
X53855952Y-81216666D01*
X53998809Y-81216666D01*
X54189285Y-81264285D01*
X54284523Y-81311904D01*
X54379761Y-81407142D01*
X54427380Y-81550000D01*
X54427380Y-81788095D01*
G04 #@! TD*
%LPC*%
D14*
G04 #@! TO.C,REF\002A\002A*
X180975000Y-80000000D03*
G04 #@! TD*
D15*
G04 #@! TO.C,J5*
X83185000Y-71120000D03*
D16*
X85725000Y-71120000D03*
X83185000Y-73660000D03*
X85725000Y-73660000D03*
X83185000Y-76200000D03*
X85725000Y-76200000D03*
X83185000Y-78740000D03*
X85725000Y-78740000D03*
X83185000Y-81280000D03*
X85725000Y-81280000D03*
X83185000Y-83820000D03*
X85725000Y-83820000D03*
X83185000Y-86360000D03*
X85725000Y-86360000D03*
X83185000Y-88900000D03*
X85725000Y-88900000D03*
G04 #@! TD*
D17*
G04 #@! TO.C,D2*
X191135000Y-80645000D03*
D18*
X193675000Y-80645000D03*
G04 #@! TD*
G04 #@! TO.C,D3*
X191135000Y-88900000D03*
D17*
X193675000Y-88900000D03*
G04 #@! TD*
G04 #@! TO.C,D1*
X191135000Y-71755000D03*
D18*
X193675000Y-71755000D03*
G04 #@! TD*
D16*
G04 #@! TO.C,J6*
X106045000Y-88900000D03*
X103505000Y-88900000D03*
X106045000Y-86360000D03*
X103505000Y-86360000D03*
X106045000Y-83820000D03*
X103505000Y-83820000D03*
X106045000Y-81280000D03*
X103505000Y-81280000D03*
X106045000Y-78740000D03*
X103505000Y-78740000D03*
X106045000Y-76200000D03*
X103505000Y-76200000D03*
X106045000Y-73660000D03*
X103505000Y-73660000D03*
X106045000Y-71120000D03*
D15*
X103505000Y-71120000D03*
G04 #@! TD*
G04 #@! TO.C,J8*
X123825000Y-71120000D03*
D16*
X126365000Y-71120000D03*
X123825000Y-73660000D03*
X126365000Y-73660000D03*
X123825000Y-76200000D03*
X126365000Y-76200000D03*
X123825000Y-78740000D03*
X126365000Y-78740000D03*
X123825000Y-81280000D03*
X126365000Y-81280000D03*
X123825000Y-83820000D03*
X126365000Y-83820000D03*
X123825000Y-86360000D03*
X126365000Y-86360000D03*
X123825000Y-88900000D03*
X126365000Y-88900000D03*
G04 #@! TD*
G04 #@! TO.C,J7*
X146685000Y-88900000D03*
X144145000Y-88900000D03*
X146685000Y-86360000D03*
X144145000Y-86360000D03*
X146685000Y-83820000D03*
X144145000Y-83820000D03*
X146685000Y-81280000D03*
X144145000Y-81280000D03*
X146685000Y-78740000D03*
X144145000Y-78740000D03*
X146685000Y-76200000D03*
X144145000Y-76200000D03*
X146685000Y-73660000D03*
X144145000Y-73660000D03*
X146685000Y-71120000D03*
D15*
X144145000Y-71120000D03*
G04 #@! TD*
D19*
G04 #@! TO.C,R2*
X186055000Y-72390000D03*
D20*
X175895000Y-72390000D03*
G04 #@! TD*
G04 #@! TO.C,R3*
X175895000Y-88900000D03*
D19*
X186055000Y-88900000D03*
G04 #@! TD*
G04 #@! TO.C,R1*
X186055000Y-68580000D03*
D20*
X175895000Y-68580000D03*
G04 #@! TD*
D21*
G04 #@! TO.C,+12V*
X62705000Y-76200000D03*
X57945000Y-76200000D03*
G04 #@! TD*
G04 #@! TO.C,+5V*
X57945000Y-69850000D03*
X62705000Y-69850000D03*
G04 #@! TD*
G04 #@! TO.C,+5V*
X170020000Y-69850000D03*
X165260000Y-69850000D03*
G04 #@! TD*
G04 #@! TO.C,+12V*
X165260000Y-76200000D03*
X170020000Y-76200000D03*
G04 #@! TD*
G04 #@! TO.C,GND*
X170020000Y-82550000D03*
X165260000Y-82550000D03*
G04 #@! TD*
G04 #@! TO.C,-12V*
X165260000Y-88900000D03*
X170020000Y-88900000D03*
G04 #@! TD*
G04 #@! TO.C,-12V*
X62705000Y-88900000D03*
X57945000Y-88900000D03*
G04 #@! TD*
G04 #@! TO.C,GND*
X57945000Y-82550000D03*
X62705000Y-82550000D03*
G04 #@! TD*
D14*
G04 #@! TO.C,REF\002A\002A*
X73025000Y-80000000D03*
G04 #@! TD*
M02*
