M48
;DRILL file {KiCad (5.0.0)} date 01/08/19 14:26:13
;FORMAT={-:-/ absolute / inch / decimal}
FMAT,2
INCH,TZ
T1C0.0315
T2C0.0354
T3C0.0394
T4C0.0472
T5C0.0591
T6C0.0669
%
G90
G05
M72
T1
X6.3Y-3.169
X5.95Y-4.1508
X4.9Y-4.475
X4.9Y-4.875
X6.125Y-4.9266
X6.125Y-5.3266
X5.725Y-5.2463
X5.725Y-5.325
X6.275Y-4.9266
X6.275Y-5.3266
X6.15Y-2.7674
X6.15Y-3.1674
X5.975Y-2.769
X5.975Y-3.169
X5.725Y-3.7713
X5.725Y-3.85
X5.975Y-4.925
X5.975Y-5.325
X6.3Y-2.769
X5.725Y-4.05
X5.725Y-4.1287
X5.725Y-4.95
X5.725Y-5.0287
X5.95Y-3.7508
X6.3Y-3.7508
X6.3Y-4.1508
X6.125Y-3.7492
X6.125Y-4.1492
X5.75Y-2.7963
X5.75Y-2.875
X4.9Y-2.475
X4.9Y-2.875
X5.75Y-3.075
X5.75Y-3.1537
T2
X6.475Y-5.0816
X6.475Y-5.1816
X6.525Y-2.9184
X6.525Y-3.0184
X6.5Y-3.9002
X6.5Y-4.0002
T3
X5.5Y-3.85
X5.5Y-3.95
X5.5Y-4.05
X5.5Y-5.0318
X5.5Y-5.1318
X5.5Y-5.2318
X5.5Y-2.8682
X5.5Y-2.9682
X5.5Y-3.0682
T4
X4.225Y-5.1
X4.5203Y-5.1
X4.225Y-3.55
X4.5203Y-3.55
X4.225Y-4.325
X4.5203Y-4.325
X4.225Y-2.775
X4.5203Y-2.775
T5
X5.36Y-2.3
X6.2261Y-2.3
T6
X6.93Y-4.9263
X6.93Y-5.1137
X6.93Y-4.2263
X6.93Y-4.4137
X6.93Y-2.8263
X6.93Y-3.0137
X6.93Y-3.5263
X6.93Y-3.7137
X6.4663Y-2.17
X6.6537Y-2.17
X4.8863Y-2.17
X5.0737Y-2.17
T0
M30
