G04 #@! TF.GenerationSoftware,KiCad,Pcbnew,(5.0.0)*
G04 #@! TF.CreationDate,2019-01-08T14:26:09-08:00*
G04 #@! TF.ProjectId,psu_board,7073755F626F6172642E6B696361645F,rev?*
G04 #@! TF.SameCoordinates,Original*
G04 #@! TF.FileFunction,Copper,L1,Top,Signal*
G04 #@! TF.FilePolarity,Positive*
%FSLAX46Y46*%
G04 Gerber Fmt 4.6, Leading zero omitted, Abs format (unit mm)*
G04 Created by KiCad (PCBNEW (5.0.0)) date 01/08/19 14:26:09*
%MOMM*%
%LPD*%
G01*
G04 APERTURE LIST*
G04 #@! TA.AperFunction,ComponentPad*
%ADD10C,2.400000*%
G04 #@! TD*
G04 #@! TA.AperFunction,ComponentPad*
%ADD11R,2.400000X2.400000*%
G04 #@! TD*
G04 #@! TA.AperFunction,ComponentPad*
%ADD12C,1.600000*%
G04 #@! TD*
G04 #@! TA.AperFunction,ComponentPad*
%ADD13R,1.600000X1.600000*%
G04 #@! TD*
G04 #@! TA.AperFunction,ComponentPad*
%ADD14O,1.600000X1.600000*%
G04 #@! TD*
G04 #@! TA.AperFunction,ComponentPad*
%ADD15C,1.800000*%
G04 #@! TD*
G04 #@! TA.AperFunction,ComponentPad*
%ADD16R,1.800000X1.800000*%
G04 #@! TD*
G04 #@! TA.AperFunction,ComponentPad*
%ADD17O,1.800000X1.800000*%
G04 #@! TD*
G04 #@! TA.AperFunction,ComponentPad*
%ADD18O,4.000000X2.500000*%
G04 #@! TD*
G04 #@! TA.AperFunction,ComponentPad*
%ADD19C,3.000000*%
G04 #@! TD*
G04 #@! TA.AperFunction,Conductor*
%ADD20C,0.750000*%
G04 #@! TD*
G04 #@! TA.AperFunction,Conductor*
%ADD21C,0.254000*%
G04 #@! TD*
G04 APERTURE END LIST*
D10*
G04 #@! TO.P,C2,2*
G04 #@! TO.N,GND*
X107315000Y-90170000D03*
D11*
G04 #@! TO.P,C2,1*
G04 #@! TO.N,Net-(C1-Pad1)*
X114815000Y-90170000D03*
G04 #@! TD*
G04 #@! TO.P,C7,1*
G04 #@! TO.N,GND*
X107315000Y-109855000D03*
D10*
G04 #@! TO.P,C7,2*
G04 #@! TO.N,Net-(C7-Pad2)*
X114815000Y-109855000D03*
G04 #@! TD*
G04 #@! TO.P,C8,2*
G04 #@! TO.N,Net-(C7-Pad2)*
X114815000Y-129540000D03*
D11*
G04 #@! TO.P,C8,1*
G04 #@! TO.N,GND*
X107315000Y-129540000D03*
G04 #@! TD*
D12*
G04 #@! TO.P,C6,2*
G04 #@! TO.N,GND*
X146050000Y-71025000D03*
D13*
G04 #@! TO.P,C6,1*
G04 #@! TO.N,+5V*
X146050000Y-73025000D03*
G04 #@! TD*
G04 #@! TO.P,C9,1*
G04 #@! TO.N,GND*
X145415000Y-135255000D03*
D12*
G04 #@! TO.P,C9,2*
G04 #@! TO.N,Net-(C7-Pad2)*
X145415000Y-133255000D03*
G04 #@! TD*
G04 #@! TO.P,C10,2*
G04 #@! TO.N,-12V*
X145415000Y-127730000D03*
D13*
G04 #@! TO.P,C10,1*
G04 #@! TO.N,GND*
X145415000Y-125730000D03*
G04 #@! TD*
D10*
G04 #@! TO.P,C1,2*
G04 #@! TO.N,GND*
X107315000Y-70485000D03*
D11*
G04 #@! TO.P,C1,1*
G04 #@! TO.N,Net-(C1-Pad1)*
X114815000Y-70485000D03*
G04 #@! TD*
D12*
G04 #@! TO.P,C3,2*
G04 #@! TO.N,GND*
X145415000Y-104870000D03*
D13*
G04 #@! TO.P,C3,1*
G04 #@! TO.N,Net-(C1-Pad1)*
X145415000Y-102870000D03*
G04 #@! TD*
G04 #@! TO.P,C4,1*
G04 #@! TO.N,+12V*
X145415000Y-97790000D03*
D12*
G04 #@! TO.P,C4,2*
G04 #@! TO.N,GND*
X145415000Y-95790000D03*
G04 #@! TD*
G04 #@! TO.P,C5,2*
G04 #@! TO.N,GND*
X146050000Y-80105000D03*
D13*
G04 #@! TO.P,C5,1*
G04 #@! TO.N,Net-(C1-Pad1)*
X146050000Y-78105000D03*
G04 #@! TD*
G04 #@! TO.P,D11,1*
G04 #@! TO.N,GND*
X155575000Y-135295000D03*
D14*
G04 #@! TO.P,D11,2*
G04 #@! TO.N,-12V*
X155575000Y-125135000D03*
G04 #@! TD*
G04 #@! TO.P,D5,2*
G04 #@! TO.N,+5V*
X151765000Y-70332500D03*
D13*
G04 #@! TO.P,D5,1*
G04 #@! TO.N,Net-(C1-Pad1)*
X151765000Y-80492500D03*
G04 #@! TD*
G04 #@! TO.P,D8,1*
G04 #@! TO.N,-12V*
X151765000Y-125095000D03*
D14*
G04 #@! TO.P,D8,2*
G04 #@! TO.N,Net-(C7-Pad2)*
X151765000Y-135255000D03*
G04 #@! TD*
G04 #@! TO.P,D9,2*
G04 #@! TO.N,Net-(C7-Pad2)*
X124460000Y-123825000D03*
D13*
G04 #@! TO.P,D9,1*
G04 #@! TO.N,Net-(D2-Pad2)*
X124460000Y-113665000D03*
G04 #@! TD*
G04 #@! TO.P,D2,1*
G04 #@! TO.N,Net-(C1-Pad1)*
X124460000Y-73025000D03*
D14*
G04 #@! TO.P,D2,2*
G04 #@! TO.N,Net-(D2-Pad2)*
X124460000Y-62865000D03*
G04 #@! TD*
G04 #@! TO.P,D1,2*
G04 #@! TO.N,+12V*
X151130000Y-95270000D03*
D13*
G04 #@! TO.P,D1,1*
G04 #@! TO.N,Net-(C1-Pad1)*
X151130000Y-105430000D03*
G04 #@! TD*
G04 #@! TO.P,D4,1*
G04 #@! TO.N,+12V*
X155575000Y-95230000D03*
D14*
G04 #@! TO.P,D4,2*
G04 #@! TO.N,GND*
X155575000Y-105390000D03*
G04 #@! TD*
G04 #@! TO.P,D7,2*
G04 #@! TO.N,GND*
X156210000Y-80452500D03*
D13*
G04 #@! TO.P,D7,1*
G04 #@! TO.N,+5V*
X156210000Y-70292500D03*
G04 #@! TD*
D15*
G04 #@! TO.P,D3,2*
G04 #@! TO.N,+12V*
X165100000Y-99065000D03*
D16*
G04 #@! TO.P,D3,1*
G04 #@! TO.N,Net-(D3-Pad1)*
X165100000Y-101605000D03*
G04 #@! TD*
G04 #@! TO.P,D10,1*
G04 #@! TO.N,-12V*
X164465000Y-129072500D03*
D15*
G04 #@! TO.P,D10,2*
G04 #@! TO.N,Net-(D10-Pad2)*
X164465000Y-131612500D03*
G04 #@! TD*
G04 #@! TO.P,D6,2*
G04 #@! TO.N,+5V*
X165735000Y-74127500D03*
D16*
G04 #@! TO.P,D6,1*
G04 #@! TO.N,Net-(D6-Pad1)*
X165735000Y-76667500D03*
G04 #@! TD*
D14*
G04 #@! TO.P,R1,2*
G04 #@! TO.N,GND*
X160020000Y-95270000D03*
D12*
G04 #@! TO.P,R1,1*
G04 #@! TO.N,Net-(D3-Pad1)*
X160020000Y-105430000D03*
G04 #@! TD*
G04 #@! TO.P,R2,1*
G04 #@! TO.N,Net-(D6-Pad1)*
X160020000Y-80492500D03*
D14*
G04 #@! TO.P,R2,2*
G04 #@! TO.N,GND*
X160020000Y-70332500D03*
G04 #@! TD*
G04 #@! TO.P,R3,2*
G04 #@! TO.N,GND*
X159385000Y-125135000D03*
D12*
G04 #@! TO.P,R3,1*
G04 #@! TO.N,Net-(D10-Pad2)*
X159385000Y-135295000D03*
G04 #@! TD*
D17*
G04 #@! TO.P,U2,3*
G04 #@! TO.N,+5V*
X139700000Y-72852500D03*
G04 #@! TO.P,U2,2*
G04 #@! TO.N,GND*
X139700000Y-75392500D03*
D16*
G04 #@! TO.P,U2,1*
G04 #@! TO.N,Net-(C1-Pad1)*
X139700000Y-77932500D03*
G04 #@! TD*
G04 #@! TO.P,U3,1*
G04 #@! TO.N,GND*
X139700000Y-132887500D03*
D17*
G04 #@! TO.P,U3,2*
G04 #@! TO.N,Net-(C7-Pad2)*
X139700000Y-130347500D03*
G04 #@! TO.P,U3,3*
G04 #@! TO.N,-12V*
X139700000Y-127807500D03*
G04 #@! TD*
G04 #@! TO.P,U1,3*
G04 #@! TO.N,+12V*
X139700000Y-97790000D03*
G04 #@! TO.P,U1,2*
G04 #@! TO.N,GND*
X139700000Y-100330000D03*
D16*
G04 #@! TO.P,U1,1*
G04 #@! TO.N,Net-(C1-Pad1)*
X139700000Y-102870000D03*
G04 #@! TD*
D18*
G04 #@! TO.P,F1,2*
G04 #@! TO.N,+12VA*
X158144000Y-58420000D03*
G04 #@! TO.P,F1,1*
G04 #@! TO.N,Net-(D2-Pad2)*
X136144000Y-58420000D03*
G04 #@! TD*
D19*
G04 #@! TO.P,J1,2*
G04 #@! TO.N,+12VA*
X169004000Y-55118000D03*
G04 #@! TO.P,J1,1*
X164244000Y-55118000D03*
G04 #@! TD*
G04 #@! TO.P,J2,2*
G04 #@! TO.N,+5V*
X176022000Y-71788000D03*
G04 #@! TO.P,J2,1*
X176022000Y-76548000D03*
G04 #@! TD*
G04 #@! TO.P,J3,1*
G04 #@! TO.N,+12V*
X176022000Y-94328000D03*
G04 #@! TO.P,J3,2*
X176022000Y-89568000D03*
G04 #@! TD*
G04 #@! TO.P,J4,2*
G04 #@! TO.N,GND*
X176022000Y-107348000D03*
G04 #@! TO.P,J4,1*
X176022000Y-112108000D03*
G04 #@! TD*
G04 #@! TO.P,J5,1*
G04 #@! TO.N,-12V*
X176022000Y-129888000D03*
G04 #@! TO.P,J5,2*
X176022000Y-125128000D03*
G04 #@! TD*
G04 #@! TO.P,J6,1*
G04 #@! TO.N,GND*
X124112000Y-55118000D03*
G04 #@! TO.P,J6,2*
X128872000Y-55118000D03*
G04 #@! TD*
D20*
G04 #@! TO.N,Net-(D10-Pad2)*
X159385000Y-135295000D02*
X160782500Y-135295000D01*
X160782500Y-135295000D02*
X164465000Y-131612500D01*
G04 #@! TO.N,Net-(D6-Pad1)*
X160020000Y-80492500D02*
X163560000Y-80492500D01*
X165735000Y-78317500D02*
X165735000Y-76667500D01*
X163560000Y-80492500D02*
X165735000Y-78317500D01*
G04 #@! TO.N,Net-(D3-Pad1)*
X160020000Y-105430000D02*
X162925000Y-105430000D01*
X165100000Y-103255000D02*
X165100000Y-101605000D01*
X162925000Y-105430000D02*
X165100000Y-103255000D01*
G04 #@! TD*
D21*
G04 #@! TO.N,Net-(C7-Pad2)*
G36*
X117348000Y-111760000D02*
X117361408Y-111816796D01*
X122441408Y-121976796D01*
X122471789Y-122015943D01*
X122514839Y-122040483D01*
X122555000Y-122047000D01*
X126238000Y-122047000D01*
X126238000Y-125095000D01*
X126247667Y-125143601D01*
X126275197Y-125184803D01*
X126324839Y-125215483D01*
X137754839Y-129025483D01*
X137795000Y-129032000D01*
X138769668Y-129032000D01*
X139101073Y-129253438D01*
X139548818Y-129342500D01*
X139851182Y-129342500D01*
X140298927Y-129253438D01*
X140630332Y-129032000D01*
X141562667Y-129032000D01*
X144068800Y-130911600D01*
X144113481Y-130933027D01*
X144145000Y-130937000D01*
X153543000Y-130937000D01*
X153543000Y-137033000D01*
X137811123Y-137033000D01*
X127821374Y-134455000D01*
X143967560Y-134455000D01*
X143967560Y-136055000D01*
X144016843Y-136302765D01*
X144157191Y-136512809D01*
X144367235Y-136653157D01*
X144615000Y-136702440D01*
X146215000Y-136702440D01*
X146462765Y-136653157D01*
X146672809Y-136512809D01*
X146813157Y-136302765D01*
X146862440Y-136055000D01*
X146862440Y-134455000D01*
X146813157Y-134207235D01*
X146672809Y-133997191D01*
X146462765Y-133856843D01*
X146215000Y-133807560D01*
X144615000Y-133807560D01*
X144367235Y-133856843D01*
X144157191Y-133997191D01*
X144016843Y-134207235D01*
X143967560Y-134455000D01*
X127821374Y-134455000D01*
X118259811Y-131987500D01*
X138152560Y-131987500D01*
X138152560Y-133787500D01*
X138201843Y-134035265D01*
X138342191Y-134245309D01*
X138552235Y-134385657D01*
X138800000Y-134434940D01*
X140600000Y-134434940D01*
X140847765Y-134385657D01*
X141057809Y-134245309D01*
X141198157Y-134035265D01*
X141247440Y-133787500D01*
X141247440Y-131987500D01*
X141198157Y-131739735D01*
X141057809Y-131529691D01*
X140847765Y-131389343D01*
X140600000Y-131340060D01*
X138800000Y-131340060D01*
X138552235Y-131389343D01*
X138342191Y-131529691D01*
X138201843Y-131739735D01*
X138152560Y-131987500D01*
X118259811Y-131987500D01*
X118141735Y-131957029D01*
X118110000Y-131953000D01*
X112522000Y-131953000D01*
X112522000Y-107442000D01*
X117348000Y-107442000D01*
X117348000Y-111760000D01*
X117348000Y-111760000D01*
G37*
X117348000Y-111760000D02*
X117361408Y-111816796D01*
X122441408Y-121976796D01*
X122471789Y-122015943D01*
X122514839Y-122040483D01*
X122555000Y-122047000D01*
X126238000Y-122047000D01*
X126238000Y-125095000D01*
X126247667Y-125143601D01*
X126275197Y-125184803D01*
X126324839Y-125215483D01*
X137754839Y-129025483D01*
X137795000Y-129032000D01*
X138769668Y-129032000D01*
X139101073Y-129253438D01*
X139548818Y-129342500D01*
X139851182Y-129342500D01*
X140298927Y-129253438D01*
X140630332Y-129032000D01*
X141562667Y-129032000D01*
X144068800Y-130911600D01*
X144113481Y-130933027D01*
X144145000Y-130937000D01*
X153543000Y-130937000D01*
X153543000Y-137033000D01*
X137811123Y-137033000D01*
X127821374Y-134455000D01*
X143967560Y-134455000D01*
X143967560Y-136055000D01*
X144016843Y-136302765D01*
X144157191Y-136512809D01*
X144367235Y-136653157D01*
X144615000Y-136702440D01*
X146215000Y-136702440D01*
X146462765Y-136653157D01*
X146672809Y-136512809D01*
X146813157Y-136302765D01*
X146862440Y-136055000D01*
X146862440Y-134455000D01*
X146813157Y-134207235D01*
X146672809Y-133997191D01*
X146462765Y-133856843D01*
X146215000Y-133807560D01*
X144615000Y-133807560D01*
X144367235Y-133856843D01*
X144157191Y-133997191D01*
X144016843Y-134207235D01*
X143967560Y-134455000D01*
X127821374Y-134455000D01*
X118259811Y-131987500D01*
X138152560Y-131987500D01*
X138152560Y-133787500D01*
X138201843Y-134035265D01*
X138342191Y-134245309D01*
X138552235Y-134385657D01*
X138800000Y-134434940D01*
X140600000Y-134434940D01*
X140847765Y-134385657D01*
X141057809Y-134245309D01*
X141198157Y-134035265D01*
X141247440Y-133787500D01*
X141247440Y-131987500D01*
X141198157Y-131739735D01*
X141057809Y-131529691D01*
X140847765Y-131389343D01*
X140600000Y-131340060D01*
X138800000Y-131340060D01*
X138552235Y-131389343D01*
X138342191Y-131529691D01*
X138201843Y-131739735D01*
X138152560Y-131987500D01*
X118259811Y-131987500D01*
X118141735Y-131957029D01*
X118110000Y-131953000D01*
X112522000Y-131953000D01*
X112522000Y-107442000D01*
X117348000Y-107442000D01*
X117348000Y-111760000D01*
G04 #@! TO.N,-12V*
G36*
X178308000Y-132588000D02*
X173482000Y-132588000D01*
X173482000Y-131445000D01*
X173472333Y-131396399D01*
X173444803Y-131355197D01*
X173403601Y-131327667D01*
X173355000Y-131318000D01*
X166000000Y-131318000D01*
X166000000Y-131307170D01*
X165766310Y-130742993D01*
X165334507Y-130311190D01*
X164770330Y-130077500D01*
X164159670Y-130077500D01*
X163595493Y-130311190D01*
X163163690Y-130742993D01*
X162995086Y-131150037D01*
X156917830Y-126895958D01*
X156872471Y-126876007D01*
X156845000Y-126873000D01*
X150495000Y-126873000D01*
X150446399Y-126882667D01*
X150415664Y-126900830D01*
X147275452Y-129413000D01*
X144183452Y-129413000D01*
X142310447Y-128164330D01*
X142240000Y-128143000D01*
X137922000Y-128143000D01*
X137922000Y-126492000D01*
X143967560Y-126492000D01*
X143967560Y-126530000D01*
X144016843Y-126777765D01*
X144157191Y-126987809D01*
X144367235Y-127128157D01*
X144615000Y-127177440D01*
X146215000Y-127177440D01*
X146462765Y-127128157D01*
X146672809Y-126987809D01*
X146813157Y-126777765D01*
X146862440Y-126530000D01*
X146862440Y-125610115D01*
X150531424Y-123317000D01*
X158067282Y-123317000D01*
X158697547Y-123868482D01*
X158350423Y-124100423D01*
X158033260Y-124575091D01*
X157921887Y-125135000D01*
X158033260Y-125694909D01*
X158350423Y-126169577D01*
X158825091Y-126486740D01*
X159243667Y-126570000D01*
X159526333Y-126570000D01*
X159944909Y-126486740D01*
X160419577Y-126169577D01*
X160736740Y-125694909D01*
X160743878Y-125659022D01*
X163111370Y-127730577D01*
X163154312Y-127755306D01*
X163195000Y-127762000D01*
X173355000Y-127762000D01*
X173403601Y-127752333D01*
X173444803Y-127724803D01*
X173472333Y-127683601D01*
X173482000Y-127635000D01*
X173482000Y-122682000D01*
X178308000Y-122682000D01*
X178308000Y-132588000D01*
X178308000Y-132588000D01*
G37*
X178308000Y-132588000D02*
X173482000Y-132588000D01*
X173482000Y-131445000D01*
X173472333Y-131396399D01*
X173444803Y-131355197D01*
X173403601Y-131327667D01*
X173355000Y-131318000D01*
X166000000Y-131318000D01*
X166000000Y-131307170D01*
X165766310Y-130742993D01*
X165334507Y-130311190D01*
X164770330Y-130077500D01*
X164159670Y-130077500D01*
X163595493Y-130311190D01*
X163163690Y-130742993D01*
X162995086Y-131150037D01*
X156917830Y-126895958D01*
X156872471Y-126876007D01*
X156845000Y-126873000D01*
X150495000Y-126873000D01*
X150446399Y-126882667D01*
X150415664Y-126900830D01*
X147275452Y-129413000D01*
X144183452Y-129413000D01*
X142310447Y-128164330D01*
X142240000Y-128143000D01*
X137922000Y-128143000D01*
X137922000Y-126492000D01*
X143967560Y-126492000D01*
X143967560Y-126530000D01*
X144016843Y-126777765D01*
X144157191Y-126987809D01*
X144367235Y-127128157D01*
X144615000Y-127177440D01*
X146215000Y-127177440D01*
X146462765Y-127128157D01*
X146672809Y-126987809D01*
X146813157Y-126777765D01*
X146862440Y-126530000D01*
X146862440Y-125610115D01*
X150531424Y-123317000D01*
X158067282Y-123317000D01*
X158697547Y-123868482D01*
X158350423Y-124100423D01*
X158033260Y-124575091D01*
X157921887Y-125135000D01*
X158033260Y-125694909D01*
X158350423Y-126169577D01*
X158825091Y-126486740D01*
X159243667Y-126570000D01*
X159526333Y-126570000D01*
X159944909Y-126486740D01*
X160419577Y-126169577D01*
X160736740Y-125694909D01*
X160743878Y-125659022D01*
X163111370Y-127730577D01*
X163154312Y-127755306D01*
X163195000Y-127762000D01*
X173355000Y-127762000D01*
X173403601Y-127752333D01*
X173444803Y-127724803D01*
X173472333Y-127683601D01*
X173482000Y-127635000D01*
X173482000Y-122682000D01*
X178308000Y-122682000D01*
X178308000Y-132588000D01*
G04 #@! TO.N,+12V*
G36*
X178181000Y-96901000D02*
X173228000Y-96901000D01*
X173171204Y-96914408D01*
X168117022Y-99441499D01*
X141177648Y-99890489D01*
X141145938Y-99731073D01*
X140806673Y-99223327D01*
X140298927Y-98884062D01*
X139851182Y-98795000D01*
X139548818Y-98795000D01*
X139101073Y-98884062D01*
X138593327Y-99223327D01*
X138254062Y-99731073D01*
X138212522Y-99939907D01*
X137795000Y-99946866D01*
X137795000Y-95504561D01*
X143980000Y-95504561D01*
X143980000Y-96075439D01*
X144198466Y-96602862D01*
X144602138Y-97006534D01*
X145129561Y-97225000D01*
X145700439Y-97225000D01*
X146227862Y-97006534D01*
X146631534Y-96602862D01*
X146850000Y-96075439D01*
X146850000Y-95504561D01*
X146752842Y-95270000D01*
X158556887Y-95270000D01*
X158668260Y-95829909D01*
X158985423Y-96304577D01*
X159460091Y-96621740D01*
X159878667Y-96705000D01*
X160161333Y-96705000D01*
X160579909Y-96621740D01*
X161054577Y-96304577D01*
X161371740Y-95829909D01*
X161483113Y-95270000D01*
X161371740Y-94710091D01*
X161054577Y-94235423D01*
X160579909Y-93918260D01*
X160161333Y-93835000D01*
X159878667Y-93835000D01*
X159460091Y-93918260D01*
X158985423Y-94235423D01*
X158668260Y-94710091D01*
X158556887Y-95270000D01*
X146752842Y-95270000D01*
X146631534Y-94977138D01*
X146227862Y-94573466D01*
X145700439Y-94355000D01*
X145129561Y-94355000D01*
X144602138Y-94573466D01*
X144198466Y-94977138D01*
X143980000Y-95504561D01*
X137795000Y-95504561D01*
X137795000Y-93599000D01*
X162560000Y-93599000D01*
X162628183Y-93579145D01*
X168214758Y-90024052D01*
X173263178Y-86995000D01*
X178181000Y-86995000D01*
X178181000Y-96901000D01*
X178181000Y-96901000D01*
G37*
X178181000Y-96901000D02*
X173228000Y-96901000D01*
X173171204Y-96914408D01*
X168117022Y-99441499D01*
X141177648Y-99890489D01*
X141145938Y-99731073D01*
X140806673Y-99223327D01*
X140298927Y-98884062D01*
X139851182Y-98795000D01*
X139548818Y-98795000D01*
X139101073Y-98884062D01*
X138593327Y-99223327D01*
X138254062Y-99731073D01*
X138212522Y-99939907D01*
X137795000Y-99946866D01*
X137795000Y-95504561D01*
X143980000Y-95504561D01*
X143980000Y-96075439D01*
X144198466Y-96602862D01*
X144602138Y-97006534D01*
X145129561Y-97225000D01*
X145700439Y-97225000D01*
X146227862Y-97006534D01*
X146631534Y-96602862D01*
X146850000Y-96075439D01*
X146850000Y-95504561D01*
X146752842Y-95270000D01*
X158556887Y-95270000D01*
X158668260Y-95829909D01*
X158985423Y-96304577D01*
X159460091Y-96621740D01*
X159878667Y-96705000D01*
X160161333Y-96705000D01*
X160579909Y-96621740D01*
X161054577Y-96304577D01*
X161371740Y-95829909D01*
X161483113Y-95270000D01*
X161371740Y-94710091D01*
X161054577Y-94235423D01*
X160579909Y-93918260D01*
X160161333Y-93835000D01*
X159878667Y-93835000D01*
X159460091Y-93918260D01*
X158985423Y-94235423D01*
X158668260Y-94710091D01*
X158556887Y-95270000D01*
X146752842Y-95270000D01*
X146631534Y-94977138D01*
X146227862Y-94573466D01*
X145700439Y-94355000D01*
X145129561Y-94355000D01*
X144602138Y-94573466D01*
X144198466Y-94977138D01*
X143980000Y-95504561D01*
X137795000Y-95504561D01*
X137795000Y-93599000D01*
X162560000Y-93599000D01*
X162628183Y-93579145D01*
X168214758Y-90024052D01*
X173263178Y-86995000D01*
X178181000Y-86995000D01*
X178181000Y-96901000D01*
G04 #@! TO.N,+5V*
G36*
X178308000Y-79244865D02*
X173272935Y-79122058D01*
X168733970Y-75591752D01*
X168689672Y-75569545D01*
X168656406Y-75565001D01*
X167241262Y-75560480D01*
X167233157Y-75519735D01*
X167092809Y-75309691D01*
X166882765Y-75169343D01*
X166635000Y-75120060D01*
X164835000Y-75120060D01*
X164587235Y-75169343D01*
X164377191Y-75309691D01*
X164236843Y-75519735D01*
X164230652Y-75550861D01*
X141248177Y-75477434D01*
X141265072Y-75392500D01*
X141145938Y-74793573D01*
X140806673Y-74285827D01*
X140298927Y-73946562D01*
X139851182Y-73857500D01*
X139548818Y-73857500D01*
X139101073Y-73946562D01*
X138593327Y-74285827D01*
X138254062Y-74793573D01*
X138134928Y-75392500D01*
X138149854Y-75467536D01*
X129032000Y-75438405D01*
X129032000Y-70739561D01*
X144615000Y-70739561D01*
X144615000Y-71310439D01*
X144833466Y-71837862D01*
X145237138Y-72241534D01*
X145764561Y-72460000D01*
X146335439Y-72460000D01*
X146862862Y-72241534D01*
X147266534Y-71837862D01*
X147485000Y-71310439D01*
X147485000Y-70739561D01*
X147316390Y-70332500D01*
X158556887Y-70332500D01*
X158668260Y-70892409D01*
X158985423Y-71367077D01*
X159460091Y-71684240D01*
X159878667Y-71767500D01*
X160161333Y-71767500D01*
X160579909Y-71684240D01*
X161054577Y-71367077D01*
X161371740Y-70892409D01*
X161483113Y-70332500D01*
X161371740Y-69772591D01*
X161054577Y-69297923D01*
X160579909Y-68980760D01*
X160161333Y-68897500D01*
X159878667Y-68897500D01*
X159460091Y-68980760D01*
X158985423Y-69297923D01*
X158668260Y-69772591D01*
X158556887Y-70332500D01*
X147316390Y-70332500D01*
X147266534Y-70212138D01*
X146862862Y-69808466D01*
X146335439Y-69590000D01*
X145764561Y-69590000D01*
X145237138Y-69808466D01*
X144833466Y-70212138D01*
X144615000Y-70739561D01*
X129032000Y-70739561D01*
X129032000Y-68707000D01*
X178308000Y-68707000D01*
X178308000Y-79244865D01*
X178308000Y-79244865D01*
G37*
X178308000Y-79244865D02*
X173272935Y-79122058D01*
X168733970Y-75591752D01*
X168689672Y-75569545D01*
X168656406Y-75565001D01*
X167241262Y-75560480D01*
X167233157Y-75519735D01*
X167092809Y-75309691D01*
X166882765Y-75169343D01*
X166635000Y-75120060D01*
X164835000Y-75120060D01*
X164587235Y-75169343D01*
X164377191Y-75309691D01*
X164236843Y-75519735D01*
X164230652Y-75550861D01*
X141248177Y-75477434D01*
X141265072Y-75392500D01*
X141145938Y-74793573D01*
X140806673Y-74285827D01*
X140298927Y-73946562D01*
X139851182Y-73857500D01*
X139548818Y-73857500D01*
X139101073Y-73946562D01*
X138593327Y-74285827D01*
X138254062Y-74793573D01*
X138134928Y-75392500D01*
X138149854Y-75467536D01*
X129032000Y-75438405D01*
X129032000Y-70739561D01*
X144615000Y-70739561D01*
X144615000Y-71310439D01*
X144833466Y-71837862D01*
X145237138Y-72241534D01*
X145764561Y-72460000D01*
X146335439Y-72460000D01*
X146862862Y-72241534D01*
X147266534Y-71837862D01*
X147485000Y-71310439D01*
X147485000Y-70739561D01*
X147316390Y-70332500D01*
X158556887Y-70332500D01*
X158668260Y-70892409D01*
X158985423Y-71367077D01*
X159460091Y-71684240D01*
X159878667Y-71767500D01*
X160161333Y-71767500D01*
X160579909Y-71684240D01*
X161054577Y-71367077D01*
X161371740Y-70892409D01*
X161483113Y-70332500D01*
X161371740Y-69772591D01*
X161054577Y-69297923D01*
X160579909Y-68980760D01*
X160161333Y-68897500D01*
X159878667Y-68897500D01*
X159460091Y-68980760D01*
X158985423Y-69297923D01*
X158668260Y-69772591D01*
X158556887Y-70332500D01*
X147316390Y-70332500D01*
X147266534Y-70212138D01*
X146862862Y-69808466D01*
X146335439Y-69590000D01*
X145764561Y-69590000D01*
X145237138Y-69808466D01*
X144833466Y-70212138D01*
X144615000Y-70739561D01*
X129032000Y-70739561D01*
X129032000Y-68707000D01*
X178308000Y-68707000D01*
X178308000Y-79244865D01*
G04 #@! TO.N,Net-(C1-Pad1)*
G36*
X127508000Y-71843011D02*
X127508000Y-76200000D01*
X127517667Y-76248601D01*
X127545197Y-76289803D01*
X127586399Y-76317333D01*
X127635000Y-76327000D01*
X138478285Y-76327000D01*
X138593327Y-76499173D01*
X139101073Y-76838438D01*
X139548818Y-76927500D01*
X139851182Y-76927500D01*
X140298927Y-76838438D01*
X140806673Y-76499173D01*
X140921715Y-76327000D01*
X153543000Y-76327000D01*
X153543000Y-81153000D01*
X147031396Y-81153000D01*
X147266534Y-80917862D01*
X147485000Y-80390439D01*
X147485000Y-79819561D01*
X147266534Y-79292138D01*
X146862862Y-78888466D01*
X146335439Y-78670000D01*
X145764561Y-78670000D01*
X145237138Y-78888466D01*
X144833466Y-79292138D01*
X144615000Y-79819561D01*
X144615000Y-80390439D01*
X144833466Y-80917862D01*
X145068604Y-81153000D01*
X136525000Y-81153000D01*
X136476399Y-81162667D01*
X136435197Y-81190197D01*
X136407667Y-81231399D01*
X136398003Y-81280814D01*
X136525003Y-101092814D01*
X136534981Y-101141352D01*
X136562775Y-101182376D01*
X136604152Y-101209642D01*
X136652948Y-101218996D01*
X138438974Y-101205667D01*
X138593327Y-101436673D01*
X139101073Y-101775938D01*
X139548818Y-101865000D01*
X139851182Y-101865000D01*
X140298927Y-101775938D01*
X140806673Y-101436673D01*
X140973665Y-101186752D01*
X153543000Y-101092951D01*
X153543000Y-107823000D01*
X130867865Y-107823000D01*
X128051832Y-104584561D01*
X143980000Y-104584561D01*
X143980000Y-105155439D01*
X144198466Y-105682862D01*
X144602138Y-106086534D01*
X145129561Y-106305000D01*
X145700439Y-106305000D01*
X146227862Y-106086534D01*
X146631534Y-105682862D01*
X146850000Y-105155439D01*
X146850000Y-104584561D01*
X146631534Y-104057138D01*
X146227862Y-103653466D01*
X145700439Y-103435000D01*
X145129561Y-103435000D01*
X144602138Y-103653466D01*
X144198466Y-104057138D01*
X143980000Y-104584561D01*
X128051832Y-104584561D01*
X118205835Y-93261665D01*
X118166649Y-93231334D01*
X118110000Y-93218000D01*
X112522000Y-93218000D01*
X112522000Y-68072000D01*
X117451970Y-68072000D01*
X127508000Y-71843011D01*
X127508000Y-71843011D01*
G37*
X127508000Y-71843011D02*
X127508000Y-76200000D01*
X127517667Y-76248601D01*
X127545197Y-76289803D01*
X127586399Y-76317333D01*
X127635000Y-76327000D01*
X138478285Y-76327000D01*
X138593327Y-76499173D01*
X139101073Y-76838438D01*
X139548818Y-76927500D01*
X139851182Y-76927500D01*
X140298927Y-76838438D01*
X140806673Y-76499173D01*
X140921715Y-76327000D01*
X153543000Y-76327000D01*
X153543000Y-81153000D01*
X147031396Y-81153000D01*
X147266534Y-80917862D01*
X147485000Y-80390439D01*
X147485000Y-79819561D01*
X147266534Y-79292138D01*
X146862862Y-78888466D01*
X146335439Y-78670000D01*
X145764561Y-78670000D01*
X145237138Y-78888466D01*
X144833466Y-79292138D01*
X144615000Y-79819561D01*
X144615000Y-80390439D01*
X144833466Y-80917862D01*
X145068604Y-81153000D01*
X136525000Y-81153000D01*
X136476399Y-81162667D01*
X136435197Y-81190197D01*
X136407667Y-81231399D01*
X136398003Y-81280814D01*
X136525003Y-101092814D01*
X136534981Y-101141352D01*
X136562775Y-101182376D01*
X136604152Y-101209642D01*
X136652948Y-101218996D01*
X138438974Y-101205667D01*
X138593327Y-101436673D01*
X139101073Y-101775938D01*
X139548818Y-101865000D01*
X139851182Y-101865000D01*
X140298927Y-101775938D01*
X140806673Y-101436673D01*
X140973665Y-101186752D01*
X153543000Y-101092951D01*
X153543000Y-107823000D01*
X130867865Y-107823000D01*
X128051832Y-104584561D01*
X143980000Y-104584561D01*
X143980000Y-105155439D01*
X144198466Y-105682862D01*
X144602138Y-106086534D01*
X145129561Y-106305000D01*
X145700439Y-106305000D01*
X146227862Y-106086534D01*
X146631534Y-105682862D01*
X146850000Y-105155439D01*
X146850000Y-104584561D01*
X146631534Y-104057138D01*
X146227862Y-103653466D01*
X145700439Y-103435000D01*
X145129561Y-103435000D01*
X144602138Y-103653466D01*
X144198466Y-104057138D01*
X143980000Y-104584561D01*
X128051832Y-104584561D01*
X118205835Y-93261665D01*
X118166649Y-93231334D01*
X118110000Y-93218000D01*
X112522000Y-93218000D01*
X112522000Y-68072000D01*
X117451970Y-68072000D01*
X127508000Y-71843011D01*
G04 #@! TO.N,Net-(D2-Pad2)*
G36*
X139573000Y-61891593D02*
X126974411Y-67183000D01*
X122679269Y-67183000D01*
X122557174Y-61566615D01*
X132618802Y-59051208D01*
X132663607Y-59030042D01*
X132696902Y-58993341D01*
X132715000Y-58928000D01*
X132715000Y-55499000D01*
X139573000Y-55499000D01*
X139573000Y-61891593D01*
X139573000Y-61891593D01*
G37*
X139573000Y-61891593D02*
X126974411Y-67183000D01*
X122679269Y-67183000D01*
X122557174Y-61566615D01*
X132618802Y-59051208D01*
X132663607Y-59030042D01*
X132696902Y-58993341D01*
X132715000Y-58928000D01*
X132715000Y-55499000D01*
X139573000Y-55499000D01*
X139573000Y-61891593D01*
G04 #@! TO.N,+12VA*
G36*
X171577000Y-61849000D02*
X155067000Y-61849000D01*
X155067000Y-51943000D01*
X171577000Y-51943000D01*
X171577000Y-61849000D01*
X171577000Y-61849000D01*
G37*
X171577000Y-61849000D02*
X155067000Y-61849000D01*
X155067000Y-51943000D01*
X171577000Y-51943000D01*
X171577000Y-61849000D01*
G04 #@! TD*
M02*
