G04 #@! TF.GenerationSoftware,KiCad,Pcbnew,(5.0.0)*
G04 #@! TF.CreationDate,2019-01-08T14:26:09-08:00*
G04 #@! TF.ProjectId,psu_board,7073755F626F6172642E6B696361645F,rev?*
G04 #@! TF.SameCoordinates,Original*
G04 #@! TF.FileFunction,Soldermask,Top*
G04 #@! TF.FilePolarity,Negative*
%FSLAX46Y46*%
G04 Gerber Fmt 4.6, Leading zero omitted, Abs format (unit mm)*
G04 Created by KiCad (PCBNEW (5.0.0)) date 01/08/19 14:26:09*
%MOMM*%
%LPD*%
G01*
G04 APERTURE LIST*
%ADD10C,3.600000*%
%ADD11C,2.800000*%
%ADD12R,2.800000X2.800000*%
%ADD13C,2.000000*%
%ADD14R,2.000000X2.000000*%
%ADD15O,2.000000X2.000000*%
%ADD16C,2.200000*%
%ADD17R,2.200000X2.200000*%
%ADD18O,2.200000X2.200000*%
%ADD19O,4.400000X2.900000*%
%ADD20C,3.400000*%
G04 APERTURE END LIST*
D10*
G04 #@! TO.C,REF\002A\002A*
X177165000Y-54610000D03*
G04 #@! TD*
G04 #@! TO.C,REF\002A\002A*
X111125000Y-54610000D03*
G04 #@! TD*
G04 #@! TO.C,REF\002A\002A*
X111125000Y-144145000D03*
G04 #@! TD*
G04 #@! TO.C,REF\002A\002A*
X177165000Y-144145000D03*
G04 #@! TD*
D11*
G04 #@! TO.C,C2*
X107315000Y-90170000D03*
D12*
X114815000Y-90170000D03*
G04 #@! TD*
G04 #@! TO.C,C7*
X107315000Y-109855000D03*
D11*
X114815000Y-109855000D03*
G04 #@! TD*
G04 #@! TO.C,C8*
X114815000Y-129540000D03*
D12*
X107315000Y-129540000D03*
G04 #@! TD*
D13*
G04 #@! TO.C,C6*
X146050000Y-71025000D03*
D14*
X146050000Y-73025000D03*
G04 #@! TD*
G04 #@! TO.C,C9*
X145415000Y-135255000D03*
D13*
X145415000Y-133255000D03*
G04 #@! TD*
G04 #@! TO.C,C10*
X145415000Y-127730000D03*
D14*
X145415000Y-125730000D03*
G04 #@! TD*
D11*
G04 #@! TO.C,C1*
X107315000Y-70485000D03*
D12*
X114815000Y-70485000D03*
G04 #@! TD*
D13*
G04 #@! TO.C,C3*
X145415000Y-104870000D03*
D14*
X145415000Y-102870000D03*
G04 #@! TD*
G04 #@! TO.C,C4*
X145415000Y-97790000D03*
D13*
X145415000Y-95790000D03*
G04 #@! TD*
G04 #@! TO.C,C5*
X146050000Y-80105000D03*
D14*
X146050000Y-78105000D03*
G04 #@! TD*
G04 #@! TO.C,D11*
X155575000Y-135295000D03*
D15*
X155575000Y-125135000D03*
G04 #@! TD*
G04 #@! TO.C,D5*
X151765000Y-70332500D03*
D14*
X151765000Y-80492500D03*
G04 #@! TD*
G04 #@! TO.C,D8*
X151765000Y-125095000D03*
D15*
X151765000Y-135255000D03*
G04 #@! TD*
G04 #@! TO.C,D9*
X124460000Y-123825000D03*
D14*
X124460000Y-113665000D03*
G04 #@! TD*
G04 #@! TO.C,D2*
X124460000Y-73025000D03*
D15*
X124460000Y-62865000D03*
G04 #@! TD*
G04 #@! TO.C,D1*
X151130000Y-95270000D03*
D14*
X151130000Y-105430000D03*
G04 #@! TD*
G04 #@! TO.C,D4*
X155575000Y-95230000D03*
D15*
X155575000Y-105390000D03*
G04 #@! TD*
G04 #@! TO.C,D7*
X156210000Y-80452500D03*
D14*
X156210000Y-70292500D03*
G04 #@! TD*
D16*
G04 #@! TO.C,D3*
X165100000Y-99065000D03*
D17*
X165100000Y-101605000D03*
G04 #@! TD*
G04 #@! TO.C,D10*
X164465000Y-129072500D03*
D16*
X164465000Y-131612500D03*
G04 #@! TD*
G04 #@! TO.C,D6*
X165735000Y-74127500D03*
D17*
X165735000Y-76667500D03*
G04 #@! TD*
D15*
G04 #@! TO.C,R1*
X160020000Y-95270000D03*
D13*
X160020000Y-105430000D03*
G04 #@! TD*
G04 #@! TO.C,R2*
X160020000Y-80492500D03*
D15*
X160020000Y-70332500D03*
G04 #@! TD*
G04 #@! TO.C,R3*
X159385000Y-125135000D03*
D13*
X159385000Y-135295000D03*
G04 #@! TD*
D18*
G04 #@! TO.C,U2*
X139700000Y-72852500D03*
X139700000Y-75392500D03*
D17*
X139700000Y-77932500D03*
G04 #@! TD*
G04 #@! TO.C,U3*
X139700000Y-132887500D03*
D18*
X139700000Y-130347500D03*
X139700000Y-127807500D03*
G04 #@! TD*
G04 #@! TO.C,U1*
X139700000Y-97790000D03*
X139700000Y-100330000D03*
D17*
X139700000Y-102870000D03*
G04 #@! TD*
D19*
G04 #@! TO.C,F1*
X158144000Y-58420000D03*
X136144000Y-58420000D03*
G04 #@! TD*
D20*
G04 #@! TO.C,J1*
X169004000Y-55118000D03*
X164244000Y-55118000D03*
G04 #@! TD*
G04 #@! TO.C,J2*
X176022000Y-71788000D03*
X176022000Y-76548000D03*
G04 #@! TD*
G04 #@! TO.C,J3*
X176022000Y-94328000D03*
X176022000Y-89568000D03*
G04 #@! TD*
G04 #@! TO.C,J4*
X176022000Y-107348000D03*
X176022000Y-112108000D03*
G04 #@! TD*
G04 #@! TO.C,J5*
X176022000Y-129888000D03*
X176022000Y-125128000D03*
G04 #@! TD*
G04 #@! TO.C,J6*
X124112000Y-55118000D03*
X128872000Y-55118000D03*
G04 #@! TD*
M02*
