G04 #@! TF.GenerationSoftware,KiCad,Pcbnew,(5.0.0)*
G04 #@! TF.CreationDate,2019-01-08T14:26:09-08:00*
G04 #@! TF.ProjectId,psu_board,7073755F626F6172642E6B696361645F,rev?*
G04 #@! TF.SameCoordinates,Original*
G04 #@! TF.FileFunction,Copper,L2,Bot,Signal*
G04 #@! TF.FilePolarity,Positive*
%FSLAX46Y46*%
G04 Gerber Fmt 4.6, Leading zero omitted, Abs format (unit mm)*
G04 Created by KiCad (PCBNEW (5.0.0)) date 01/08/19 14:26:09*
%MOMM*%
%LPD*%
G01*
G04 APERTURE LIST*
G04 #@! TA.AperFunction,ComponentPad*
%ADD10C,2.400000*%
G04 #@! TD*
G04 #@! TA.AperFunction,ComponentPad*
%ADD11R,2.400000X2.400000*%
G04 #@! TD*
G04 #@! TA.AperFunction,ComponentPad*
%ADD12C,1.600000*%
G04 #@! TD*
G04 #@! TA.AperFunction,ComponentPad*
%ADD13R,1.600000X1.600000*%
G04 #@! TD*
G04 #@! TA.AperFunction,ComponentPad*
%ADD14O,1.600000X1.600000*%
G04 #@! TD*
G04 #@! TA.AperFunction,ComponentPad*
%ADD15C,1.800000*%
G04 #@! TD*
G04 #@! TA.AperFunction,ComponentPad*
%ADD16R,1.800000X1.800000*%
G04 #@! TD*
G04 #@! TA.AperFunction,ComponentPad*
%ADD17O,1.800000X1.800000*%
G04 #@! TD*
G04 #@! TA.AperFunction,ComponentPad*
%ADD18O,4.000000X2.500000*%
G04 #@! TD*
G04 #@! TA.AperFunction,ComponentPad*
%ADD19C,3.000000*%
G04 #@! TD*
G04 #@! TA.AperFunction,Conductor*
%ADD20C,0.254000*%
G04 #@! TD*
G04 APERTURE END LIST*
D10*
G04 #@! TO.P,C2,2*
G04 #@! TO.N,GND*
X107315000Y-90170000D03*
D11*
G04 #@! TO.P,C2,1*
G04 #@! TO.N,Net-(C1-Pad1)*
X114815000Y-90170000D03*
G04 #@! TD*
G04 #@! TO.P,C7,1*
G04 #@! TO.N,GND*
X107315000Y-109855000D03*
D10*
G04 #@! TO.P,C7,2*
G04 #@! TO.N,Net-(C7-Pad2)*
X114815000Y-109855000D03*
G04 #@! TD*
G04 #@! TO.P,C8,2*
G04 #@! TO.N,Net-(C7-Pad2)*
X114815000Y-129540000D03*
D11*
G04 #@! TO.P,C8,1*
G04 #@! TO.N,GND*
X107315000Y-129540000D03*
G04 #@! TD*
D12*
G04 #@! TO.P,C6,2*
G04 #@! TO.N,GND*
X146050000Y-71025000D03*
D13*
G04 #@! TO.P,C6,1*
G04 #@! TO.N,+5V*
X146050000Y-73025000D03*
G04 #@! TD*
G04 #@! TO.P,C9,1*
G04 #@! TO.N,GND*
X145415000Y-135255000D03*
D12*
G04 #@! TO.P,C9,2*
G04 #@! TO.N,Net-(C7-Pad2)*
X145415000Y-133255000D03*
G04 #@! TD*
G04 #@! TO.P,C10,2*
G04 #@! TO.N,-12V*
X145415000Y-127730000D03*
D13*
G04 #@! TO.P,C10,1*
G04 #@! TO.N,GND*
X145415000Y-125730000D03*
G04 #@! TD*
D10*
G04 #@! TO.P,C1,2*
G04 #@! TO.N,GND*
X107315000Y-70485000D03*
D11*
G04 #@! TO.P,C1,1*
G04 #@! TO.N,Net-(C1-Pad1)*
X114815000Y-70485000D03*
G04 #@! TD*
D12*
G04 #@! TO.P,C3,2*
G04 #@! TO.N,GND*
X145415000Y-104870000D03*
D13*
G04 #@! TO.P,C3,1*
G04 #@! TO.N,Net-(C1-Pad1)*
X145415000Y-102870000D03*
G04 #@! TD*
G04 #@! TO.P,C4,1*
G04 #@! TO.N,+12V*
X145415000Y-97790000D03*
D12*
G04 #@! TO.P,C4,2*
G04 #@! TO.N,GND*
X145415000Y-95790000D03*
G04 #@! TD*
G04 #@! TO.P,C5,2*
G04 #@! TO.N,GND*
X146050000Y-80105000D03*
D13*
G04 #@! TO.P,C5,1*
G04 #@! TO.N,Net-(C1-Pad1)*
X146050000Y-78105000D03*
G04 #@! TD*
G04 #@! TO.P,D11,1*
G04 #@! TO.N,GND*
X155575000Y-135295000D03*
D14*
G04 #@! TO.P,D11,2*
G04 #@! TO.N,-12V*
X155575000Y-125135000D03*
G04 #@! TD*
G04 #@! TO.P,D5,2*
G04 #@! TO.N,+5V*
X151765000Y-70332500D03*
D13*
G04 #@! TO.P,D5,1*
G04 #@! TO.N,Net-(C1-Pad1)*
X151765000Y-80492500D03*
G04 #@! TD*
G04 #@! TO.P,D8,1*
G04 #@! TO.N,-12V*
X151765000Y-125095000D03*
D14*
G04 #@! TO.P,D8,2*
G04 #@! TO.N,Net-(C7-Pad2)*
X151765000Y-135255000D03*
G04 #@! TD*
G04 #@! TO.P,D9,2*
G04 #@! TO.N,Net-(C7-Pad2)*
X124460000Y-123825000D03*
D13*
G04 #@! TO.P,D9,1*
G04 #@! TO.N,Net-(D2-Pad2)*
X124460000Y-113665000D03*
G04 #@! TD*
G04 #@! TO.P,D2,1*
G04 #@! TO.N,Net-(C1-Pad1)*
X124460000Y-73025000D03*
D14*
G04 #@! TO.P,D2,2*
G04 #@! TO.N,Net-(D2-Pad2)*
X124460000Y-62865000D03*
G04 #@! TD*
G04 #@! TO.P,D1,2*
G04 #@! TO.N,+12V*
X151130000Y-95270000D03*
D13*
G04 #@! TO.P,D1,1*
G04 #@! TO.N,Net-(C1-Pad1)*
X151130000Y-105430000D03*
G04 #@! TD*
G04 #@! TO.P,D4,1*
G04 #@! TO.N,+12V*
X155575000Y-95230000D03*
D14*
G04 #@! TO.P,D4,2*
G04 #@! TO.N,GND*
X155575000Y-105390000D03*
G04 #@! TD*
G04 #@! TO.P,D7,2*
G04 #@! TO.N,GND*
X156210000Y-80452500D03*
D13*
G04 #@! TO.P,D7,1*
G04 #@! TO.N,+5V*
X156210000Y-70292500D03*
G04 #@! TD*
D15*
G04 #@! TO.P,D3,2*
G04 #@! TO.N,+12V*
X165100000Y-99065000D03*
D16*
G04 #@! TO.P,D3,1*
G04 #@! TO.N,Net-(D3-Pad1)*
X165100000Y-101605000D03*
G04 #@! TD*
G04 #@! TO.P,D10,1*
G04 #@! TO.N,-12V*
X164465000Y-129072500D03*
D15*
G04 #@! TO.P,D10,2*
G04 #@! TO.N,Net-(D10-Pad2)*
X164465000Y-131612500D03*
G04 #@! TD*
G04 #@! TO.P,D6,2*
G04 #@! TO.N,+5V*
X165735000Y-74127500D03*
D16*
G04 #@! TO.P,D6,1*
G04 #@! TO.N,Net-(D6-Pad1)*
X165735000Y-76667500D03*
G04 #@! TD*
D14*
G04 #@! TO.P,R1,2*
G04 #@! TO.N,GND*
X160020000Y-95270000D03*
D12*
G04 #@! TO.P,R1,1*
G04 #@! TO.N,Net-(D3-Pad1)*
X160020000Y-105430000D03*
G04 #@! TD*
G04 #@! TO.P,R2,1*
G04 #@! TO.N,Net-(D6-Pad1)*
X160020000Y-80492500D03*
D14*
G04 #@! TO.P,R2,2*
G04 #@! TO.N,GND*
X160020000Y-70332500D03*
G04 #@! TD*
G04 #@! TO.P,R3,2*
G04 #@! TO.N,GND*
X159385000Y-125135000D03*
D12*
G04 #@! TO.P,R3,1*
G04 #@! TO.N,Net-(D10-Pad2)*
X159385000Y-135295000D03*
G04 #@! TD*
D17*
G04 #@! TO.P,U2,3*
G04 #@! TO.N,+5V*
X139700000Y-72852500D03*
G04 #@! TO.P,U2,2*
G04 #@! TO.N,GND*
X139700000Y-75392500D03*
D16*
G04 #@! TO.P,U2,1*
G04 #@! TO.N,Net-(C1-Pad1)*
X139700000Y-77932500D03*
G04 #@! TD*
G04 #@! TO.P,U3,1*
G04 #@! TO.N,GND*
X139700000Y-132887500D03*
D17*
G04 #@! TO.P,U3,2*
G04 #@! TO.N,Net-(C7-Pad2)*
X139700000Y-130347500D03*
G04 #@! TO.P,U3,3*
G04 #@! TO.N,-12V*
X139700000Y-127807500D03*
G04 #@! TD*
G04 #@! TO.P,U1,3*
G04 #@! TO.N,+12V*
X139700000Y-97790000D03*
G04 #@! TO.P,U1,2*
G04 #@! TO.N,GND*
X139700000Y-100330000D03*
D16*
G04 #@! TO.P,U1,1*
G04 #@! TO.N,Net-(C1-Pad1)*
X139700000Y-102870000D03*
G04 #@! TD*
D18*
G04 #@! TO.P,F1,2*
G04 #@! TO.N,+12VA*
X158144000Y-58420000D03*
G04 #@! TO.P,F1,1*
G04 #@! TO.N,Net-(D2-Pad2)*
X136144000Y-58420000D03*
G04 #@! TD*
D19*
G04 #@! TO.P,J1,2*
G04 #@! TO.N,+12VA*
X169004000Y-55118000D03*
G04 #@! TO.P,J1,1*
X164244000Y-55118000D03*
G04 #@! TD*
G04 #@! TO.P,J2,2*
G04 #@! TO.N,+5V*
X176022000Y-71788000D03*
G04 #@! TO.P,J2,1*
X176022000Y-76548000D03*
G04 #@! TD*
G04 #@! TO.P,J3,1*
G04 #@! TO.N,+12V*
X176022000Y-94328000D03*
G04 #@! TO.P,J3,2*
X176022000Y-89568000D03*
G04 #@! TD*
G04 #@! TO.P,J4,2*
G04 #@! TO.N,GND*
X176022000Y-107348000D03*
G04 #@! TO.P,J4,1*
X176022000Y-112108000D03*
G04 #@! TD*
G04 #@! TO.P,J5,1*
G04 #@! TO.N,-12V*
X176022000Y-129888000D03*
G04 #@! TO.P,J5,2*
X176022000Y-125128000D03*
G04 #@! TD*
G04 #@! TO.P,J6,1*
G04 #@! TO.N,GND*
X124112000Y-55118000D03*
G04 #@! TO.P,J6,2*
X128872000Y-55118000D03*
G04 #@! TD*
D20*
G04 #@! TO.N,GND*
G36*
X184023000Y-149098000D02*
X101092000Y-149098000D01*
X101092000Y-143700431D01*
X108890000Y-143700431D01*
X108890000Y-144589569D01*
X109230259Y-145411026D01*
X109858974Y-146039741D01*
X110680431Y-146380000D01*
X111569569Y-146380000D01*
X112391026Y-146039741D01*
X113019741Y-145411026D01*
X113360000Y-144589569D01*
X113360000Y-143700431D01*
X174930000Y-143700431D01*
X174930000Y-144589569D01*
X175270259Y-145411026D01*
X175898974Y-146039741D01*
X176720431Y-146380000D01*
X177609569Y-146380000D01*
X178431026Y-146039741D01*
X179059741Y-145411026D01*
X179400000Y-144589569D01*
X179400000Y-143700431D01*
X179059741Y-142878974D01*
X178431026Y-142250259D01*
X177609569Y-141910000D01*
X176720431Y-141910000D01*
X175898974Y-142250259D01*
X175270259Y-142878974D01*
X174930000Y-143700431D01*
X113360000Y-143700431D01*
X113019741Y-142878974D01*
X112391026Y-142250259D01*
X111569569Y-141910000D01*
X110680431Y-141910000D01*
X109858974Y-142250259D01*
X109230259Y-142878974D01*
X108890000Y-143700431D01*
X101092000Y-143700431D01*
X101092000Y-135255000D01*
X150301887Y-135255000D01*
X150413260Y-135814909D01*
X150730423Y-136289577D01*
X151205091Y-136606740D01*
X151623667Y-136690000D01*
X151906333Y-136690000D01*
X152324909Y-136606740D01*
X152799577Y-136289577D01*
X153116740Y-135814909D01*
X153228113Y-135255000D01*
X153179293Y-135009561D01*
X157950000Y-135009561D01*
X157950000Y-135580439D01*
X158168466Y-136107862D01*
X158572138Y-136511534D01*
X159099561Y-136730000D01*
X159670439Y-136730000D01*
X160197862Y-136511534D01*
X160601534Y-136107862D01*
X160820000Y-135580439D01*
X160820000Y-135009561D01*
X160601534Y-134482138D01*
X160197862Y-134078466D01*
X159670439Y-133860000D01*
X159099561Y-133860000D01*
X158572138Y-134078466D01*
X158168466Y-134482138D01*
X157950000Y-135009561D01*
X153179293Y-135009561D01*
X153116740Y-134695091D01*
X152799577Y-134220423D01*
X152324909Y-133903260D01*
X151906333Y-133820000D01*
X151623667Y-133820000D01*
X151205091Y-133903260D01*
X150730423Y-134220423D01*
X150413260Y-134695091D01*
X150301887Y-135255000D01*
X101092000Y-135255000D01*
X101092000Y-132969561D01*
X143980000Y-132969561D01*
X143980000Y-133540439D01*
X144198466Y-134067862D01*
X144602138Y-134471534D01*
X145129561Y-134690000D01*
X145700439Y-134690000D01*
X146227862Y-134471534D01*
X146631534Y-134067862D01*
X146850000Y-133540439D01*
X146850000Y-132969561D01*
X146631534Y-132442138D01*
X146227862Y-132038466D01*
X145700439Y-131820000D01*
X145129561Y-131820000D01*
X144602138Y-132038466D01*
X144198466Y-132442138D01*
X143980000Y-132969561D01*
X101092000Y-132969561D01*
X101092000Y-129174996D01*
X112980000Y-129174996D01*
X112980000Y-129905004D01*
X113259362Y-130579444D01*
X113775556Y-131095638D01*
X114449996Y-131375000D01*
X115180004Y-131375000D01*
X115854444Y-131095638D01*
X116370638Y-130579444D01*
X116650000Y-129905004D01*
X116650000Y-129174996D01*
X116370638Y-128500556D01*
X115854444Y-127984362D01*
X115427462Y-127807500D01*
X138134928Y-127807500D01*
X138254062Y-128406427D01*
X138593327Y-128914173D01*
X138837763Y-129077500D01*
X138593327Y-129240827D01*
X138254062Y-129748573D01*
X138134928Y-130347500D01*
X138254062Y-130946427D01*
X138593327Y-131454173D01*
X139101073Y-131793438D01*
X139548818Y-131882500D01*
X139851182Y-131882500D01*
X140298927Y-131793438D01*
X140806673Y-131454173D01*
X141145938Y-130946427D01*
X141265072Y-130347500D01*
X141145938Y-129748573D01*
X140806673Y-129240827D01*
X140562237Y-129077500D01*
X140806673Y-128914173D01*
X141145938Y-128406427D01*
X141265072Y-127807500D01*
X141192879Y-127444561D01*
X143980000Y-127444561D01*
X143980000Y-128015439D01*
X144198466Y-128542862D01*
X144602138Y-128946534D01*
X145129561Y-129165000D01*
X145700439Y-129165000D01*
X146227862Y-128946534D01*
X146631534Y-128542862D01*
X146784943Y-128172500D01*
X162917560Y-128172500D01*
X162917560Y-129972500D01*
X162966843Y-130220265D01*
X163107191Y-130430309D01*
X163317235Y-130570657D01*
X163332908Y-130573775D01*
X163163690Y-130742993D01*
X162930000Y-131307170D01*
X162930000Y-131917830D01*
X163163690Y-132482007D01*
X163595493Y-132913810D01*
X164159670Y-133147500D01*
X164770330Y-133147500D01*
X165334507Y-132913810D01*
X165766310Y-132482007D01*
X166000000Y-131917830D01*
X166000000Y-131307170D01*
X165766310Y-130742993D01*
X165597092Y-130573775D01*
X165612765Y-130570657D01*
X165822809Y-130430309D01*
X165963157Y-130220265D01*
X166012440Y-129972500D01*
X166012440Y-129463322D01*
X173887000Y-129463322D01*
X173887000Y-130312678D01*
X174212034Y-131097380D01*
X174812620Y-131697966D01*
X175597322Y-132023000D01*
X176446678Y-132023000D01*
X177231380Y-131697966D01*
X177831966Y-131097380D01*
X178157000Y-130312678D01*
X178157000Y-129463322D01*
X177831966Y-128678620D01*
X177231380Y-128078034D01*
X176446678Y-127753000D01*
X175597322Y-127753000D01*
X174812620Y-128078034D01*
X174212034Y-128678620D01*
X173887000Y-129463322D01*
X166012440Y-129463322D01*
X166012440Y-128172500D01*
X165963157Y-127924735D01*
X165822809Y-127714691D01*
X165612765Y-127574343D01*
X165365000Y-127525060D01*
X163565000Y-127525060D01*
X163317235Y-127574343D01*
X163107191Y-127714691D01*
X162966843Y-127924735D01*
X162917560Y-128172500D01*
X146784943Y-128172500D01*
X146850000Y-128015439D01*
X146850000Y-127444561D01*
X146631534Y-126917138D01*
X146227862Y-126513466D01*
X145700439Y-126295000D01*
X145129561Y-126295000D01*
X144602138Y-126513466D01*
X144198466Y-126917138D01*
X143980000Y-127444561D01*
X141192879Y-127444561D01*
X141145938Y-127208573D01*
X140806673Y-126700827D01*
X140298927Y-126361562D01*
X139851182Y-126272500D01*
X139548818Y-126272500D01*
X139101073Y-126361562D01*
X138593327Y-126700827D01*
X138254062Y-127208573D01*
X138134928Y-127807500D01*
X115427462Y-127807500D01*
X115180004Y-127705000D01*
X114449996Y-127705000D01*
X113775556Y-127984362D01*
X113259362Y-128500556D01*
X112980000Y-129174996D01*
X101092000Y-129174996D01*
X101092000Y-109489996D01*
X112980000Y-109489996D01*
X112980000Y-110220004D01*
X113259362Y-110894444D01*
X113775556Y-111410638D01*
X114449996Y-111690000D01*
X115180004Y-111690000D01*
X115854444Y-111410638D01*
X116370638Y-110894444D01*
X116650000Y-110220004D01*
X116650000Y-109489996D01*
X116370638Y-108815556D01*
X115854444Y-108299362D01*
X115180004Y-108020000D01*
X114449996Y-108020000D01*
X113775556Y-108299362D01*
X113259362Y-108815556D01*
X112980000Y-109489996D01*
X101092000Y-109489996D01*
X101092000Y-88970000D01*
X112967560Y-88970000D01*
X112967560Y-91370000D01*
X113016843Y-91617765D01*
X113157191Y-91827809D01*
X113367235Y-91968157D01*
X113615000Y-92017440D01*
X116015000Y-92017440D01*
X116262765Y-91968157D01*
X116472809Y-91827809D01*
X116613157Y-91617765D01*
X116662440Y-91370000D01*
X116662440Y-88970000D01*
X116613157Y-88722235D01*
X116472809Y-88512191D01*
X116262765Y-88371843D01*
X116015000Y-88322560D01*
X113615000Y-88322560D01*
X113367235Y-88371843D01*
X113157191Y-88512191D01*
X113016843Y-88722235D01*
X112967560Y-88970000D01*
X101092000Y-88970000D01*
X101092000Y-69285000D01*
X112967560Y-69285000D01*
X112967560Y-71685000D01*
X113016843Y-71932765D01*
X113157191Y-72142809D01*
X113367235Y-72283157D01*
X113615000Y-72332440D01*
X116015000Y-72332440D01*
X116262765Y-72283157D01*
X116472809Y-72142809D01*
X116613157Y-71932765D01*
X116662440Y-71685000D01*
X116662440Y-69285000D01*
X116613157Y-69037235D01*
X116472809Y-68827191D01*
X116262765Y-68686843D01*
X116015000Y-68637560D01*
X113615000Y-68637560D01*
X113367235Y-68686843D01*
X113157191Y-68827191D01*
X113016843Y-69037235D01*
X112967560Y-69285000D01*
X101092000Y-69285000D01*
X101092000Y-60325000D01*
X121793000Y-60325000D01*
X121793000Y-125730000D01*
X121802667Y-125778601D01*
X121830197Y-125819803D01*
X121871399Y-125847333D01*
X121920000Y-125857000D01*
X127000000Y-125857000D01*
X127048601Y-125847333D01*
X127089803Y-125819803D01*
X127117333Y-125778601D01*
X127127000Y-125730000D01*
X127127000Y-124295000D01*
X150317560Y-124295000D01*
X150317560Y-125895000D01*
X150366843Y-126142765D01*
X150507191Y-126352809D01*
X150717235Y-126493157D01*
X150965000Y-126542440D01*
X152565000Y-126542440D01*
X152812765Y-126493157D01*
X153022809Y-126352809D01*
X153163157Y-126142765D01*
X153212440Y-125895000D01*
X153212440Y-125135000D01*
X154111887Y-125135000D01*
X154223260Y-125694909D01*
X154540423Y-126169577D01*
X155015091Y-126486740D01*
X155433667Y-126570000D01*
X155716333Y-126570000D01*
X156134909Y-126486740D01*
X156609577Y-126169577D01*
X156926740Y-125694909D01*
X157038113Y-125135000D01*
X156952247Y-124703322D01*
X173887000Y-124703322D01*
X173887000Y-125552678D01*
X174212034Y-126337380D01*
X174812620Y-126937966D01*
X175597322Y-127263000D01*
X176446678Y-127263000D01*
X177231380Y-126937966D01*
X177831966Y-126337380D01*
X178157000Y-125552678D01*
X178157000Y-124703322D01*
X177831966Y-123918620D01*
X177231380Y-123318034D01*
X176446678Y-122993000D01*
X175597322Y-122993000D01*
X174812620Y-123318034D01*
X174212034Y-123918620D01*
X173887000Y-124703322D01*
X156952247Y-124703322D01*
X156926740Y-124575091D01*
X156609577Y-124100423D01*
X156134909Y-123783260D01*
X155716333Y-123700000D01*
X155433667Y-123700000D01*
X155015091Y-123783260D01*
X154540423Y-124100423D01*
X154223260Y-124575091D01*
X154111887Y-125135000D01*
X153212440Y-125135000D01*
X153212440Y-124295000D01*
X153163157Y-124047235D01*
X153022809Y-123837191D01*
X152812765Y-123696843D01*
X152565000Y-123647560D01*
X150965000Y-123647560D01*
X150717235Y-123696843D01*
X150507191Y-123837191D01*
X150366843Y-124047235D01*
X150317560Y-124295000D01*
X127127000Y-124295000D01*
X127127000Y-104630000D01*
X149682560Y-104630000D01*
X149682560Y-106230000D01*
X149731843Y-106477765D01*
X149872191Y-106687809D01*
X150082235Y-106828157D01*
X150330000Y-106877440D01*
X151930000Y-106877440D01*
X152177765Y-106828157D01*
X152387809Y-106687809D01*
X152528157Y-106477765D01*
X152577440Y-106230000D01*
X152577440Y-105144561D01*
X158585000Y-105144561D01*
X158585000Y-105715439D01*
X158803466Y-106242862D01*
X159207138Y-106646534D01*
X159734561Y-106865000D01*
X160305439Y-106865000D01*
X160832862Y-106646534D01*
X161236534Y-106242862D01*
X161455000Y-105715439D01*
X161455000Y-105144561D01*
X161236534Y-104617138D01*
X160832862Y-104213466D01*
X160305439Y-103995000D01*
X159734561Y-103995000D01*
X159207138Y-104213466D01*
X158803466Y-104617138D01*
X158585000Y-105144561D01*
X152577440Y-105144561D01*
X152577440Y-104630000D01*
X152528157Y-104382235D01*
X152387809Y-104172191D01*
X152177765Y-104031843D01*
X151930000Y-103982560D01*
X150330000Y-103982560D01*
X150082235Y-104031843D01*
X149872191Y-104172191D01*
X149731843Y-104382235D01*
X149682560Y-104630000D01*
X127127000Y-104630000D01*
X127127000Y-101970000D01*
X138152560Y-101970000D01*
X138152560Y-103770000D01*
X138201843Y-104017765D01*
X138342191Y-104227809D01*
X138552235Y-104368157D01*
X138800000Y-104417440D01*
X140600000Y-104417440D01*
X140847765Y-104368157D01*
X141057809Y-104227809D01*
X141198157Y-104017765D01*
X141247440Y-103770000D01*
X141247440Y-102070000D01*
X143967560Y-102070000D01*
X143967560Y-103670000D01*
X144016843Y-103917765D01*
X144157191Y-104127809D01*
X144367235Y-104268157D01*
X144615000Y-104317440D01*
X146215000Y-104317440D01*
X146462765Y-104268157D01*
X146672809Y-104127809D01*
X146813157Y-103917765D01*
X146862440Y-103670000D01*
X146862440Y-102070000D01*
X146813157Y-101822235D01*
X146672809Y-101612191D01*
X146462765Y-101471843D01*
X146215000Y-101422560D01*
X144615000Y-101422560D01*
X144367235Y-101471843D01*
X144157191Y-101612191D01*
X144016843Y-101822235D01*
X143967560Y-102070000D01*
X141247440Y-102070000D01*
X141247440Y-101970000D01*
X141198157Y-101722235D01*
X141057809Y-101512191D01*
X140847765Y-101371843D01*
X140600000Y-101322560D01*
X138800000Y-101322560D01*
X138552235Y-101371843D01*
X138342191Y-101512191D01*
X138201843Y-101722235D01*
X138152560Y-101970000D01*
X127127000Y-101970000D01*
X127127000Y-100705000D01*
X163552560Y-100705000D01*
X163552560Y-102505000D01*
X163601843Y-102752765D01*
X163742191Y-102962809D01*
X163952235Y-103103157D01*
X164200000Y-103152440D01*
X166000000Y-103152440D01*
X166247765Y-103103157D01*
X166457809Y-102962809D01*
X166598157Y-102752765D01*
X166647440Y-102505000D01*
X166647440Y-100705000D01*
X166598157Y-100457235D01*
X166457809Y-100247191D01*
X166247765Y-100106843D01*
X166232092Y-100103725D01*
X166401310Y-99934507D01*
X166635000Y-99370330D01*
X166635000Y-98759670D01*
X166401310Y-98195493D01*
X165969507Y-97763690D01*
X165405330Y-97530000D01*
X164794670Y-97530000D01*
X164230493Y-97763690D01*
X163798690Y-98195493D01*
X163565000Y-98759670D01*
X163565000Y-99370330D01*
X163798690Y-99934507D01*
X163967908Y-100103725D01*
X163952235Y-100106843D01*
X163742191Y-100247191D01*
X163601843Y-100457235D01*
X163552560Y-100705000D01*
X127127000Y-100705000D01*
X127127000Y-97790000D01*
X138134928Y-97790000D01*
X138254062Y-98388927D01*
X138593327Y-98896673D01*
X139101073Y-99235938D01*
X139548818Y-99325000D01*
X139851182Y-99325000D01*
X140298927Y-99235938D01*
X140806673Y-98896673D01*
X141145938Y-98388927D01*
X141265072Y-97790000D01*
X141145938Y-97191073D01*
X141011586Y-96990000D01*
X143967560Y-96990000D01*
X143967560Y-98590000D01*
X144016843Y-98837765D01*
X144157191Y-99047809D01*
X144367235Y-99188157D01*
X144615000Y-99237440D01*
X146215000Y-99237440D01*
X146462765Y-99188157D01*
X146672809Y-99047809D01*
X146813157Y-98837765D01*
X146862440Y-98590000D01*
X146862440Y-96990000D01*
X146813157Y-96742235D01*
X146672809Y-96532191D01*
X146462765Y-96391843D01*
X146215000Y-96342560D01*
X144615000Y-96342560D01*
X144367235Y-96391843D01*
X144157191Y-96532191D01*
X144016843Y-96742235D01*
X143967560Y-96990000D01*
X141011586Y-96990000D01*
X140806673Y-96683327D01*
X140298927Y-96344062D01*
X139851182Y-96255000D01*
X139548818Y-96255000D01*
X139101073Y-96344062D01*
X138593327Y-96683327D01*
X138254062Y-97191073D01*
X138134928Y-97790000D01*
X127127000Y-97790000D01*
X127127000Y-95270000D01*
X149666887Y-95270000D01*
X149778260Y-95829909D01*
X150095423Y-96304577D01*
X150570091Y-96621740D01*
X150988667Y-96705000D01*
X151271333Y-96705000D01*
X151689909Y-96621740D01*
X152164577Y-96304577D01*
X152481740Y-95829909D01*
X152593113Y-95270000D01*
X152481740Y-94710091D01*
X152294590Y-94430000D01*
X154127560Y-94430000D01*
X154127560Y-96030000D01*
X154176843Y-96277765D01*
X154317191Y-96487809D01*
X154527235Y-96628157D01*
X154775000Y-96677440D01*
X156375000Y-96677440D01*
X156622765Y-96628157D01*
X156832809Y-96487809D01*
X156973157Y-96277765D01*
X157022440Y-96030000D01*
X157022440Y-94430000D01*
X156973157Y-94182235D01*
X156832809Y-93972191D01*
X156729741Y-93903322D01*
X173887000Y-93903322D01*
X173887000Y-94752678D01*
X174212034Y-95537380D01*
X174812620Y-96137966D01*
X175597322Y-96463000D01*
X176446678Y-96463000D01*
X177231380Y-96137966D01*
X177831966Y-95537380D01*
X178157000Y-94752678D01*
X178157000Y-93903322D01*
X177831966Y-93118620D01*
X177231380Y-92518034D01*
X176446678Y-92193000D01*
X175597322Y-92193000D01*
X174812620Y-92518034D01*
X174212034Y-93118620D01*
X173887000Y-93903322D01*
X156729741Y-93903322D01*
X156622765Y-93831843D01*
X156375000Y-93782560D01*
X154775000Y-93782560D01*
X154527235Y-93831843D01*
X154317191Y-93972191D01*
X154176843Y-94182235D01*
X154127560Y-94430000D01*
X152294590Y-94430000D01*
X152164577Y-94235423D01*
X151689909Y-93918260D01*
X151271333Y-93835000D01*
X150988667Y-93835000D01*
X150570091Y-93918260D01*
X150095423Y-94235423D01*
X149778260Y-94710091D01*
X149666887Y-95270000D01*
X127127000Y-95270000D01*
X127127000Y-89143322D01*
X173887000Y-89143322D01*
X173887000Y-89992678D01*
X174212034Y-90777380D01*
X174812620Y-91377966D01*
X175597322Y-91703000D01*
X176446678Y-91703000D01*
X177231380Y-91377966D01*
X177831966Y-90777380D01*
X178157000Y-89992678D01*
X178157000Y-89143322D01*
X177831966Y-88358620D01*
X177231380Y-87758034D01*
X176446678Y-87433000D01*
X175597322Y-87433000D01*
X174812620Y-87758034D01*
X174212034Y-88358620D01*
X173887000Y-89143322D01*
X127127000Y-89143322D01*
X127127000Y-79692500D01*
X150317560Y-79692500D01*
X150317560Y-81292500D01*
X150366843Y-81540265D01*
X150507191Y-81750309D01*
X150717235Y-81890657D01*
X150965000Y-81939940D01*
X152565000Y-81939940D01*
X152812765Y-81890657D01*
X153022809Y-81750309D01*
X153163157Y-81540265D01*
X153212440Y-81292500D01*
X153212440Y-80207061D01*
X158585000Y-80207061D01*
X158585000Y-80777939D01*
X158803466Y-81305362D01*
X159207138Y-81709034D01*
X159734561Y-81927500D01*
X160305439Y-81927500D01*
X160832862Y-81709034D01*
X161236534Y-81305362D01*
X161455000Y-80777939D01*
X161455000Y-80207061D01*
X161236534Y-79679638D01*
X160832862Y-79275966D01*
X160305439Y-79057500D01*
X159734561Y-79057500D01*
X159207138Y-79275966D01*
X158803466Y-79679638D01*
X158585000Y-80207061D01*
X153212440Y-80207061D01*
X153212440Y-79692500D01*
X153163157Y-79444735D01*
X153022809Y-79234691D01*
X152812765Y-79094343D01*
X152565000Y-79045060D01*
X150965000Y-79045060D01*
X150717235Y-79094343D01*
X150507191Y-79234691D01*
X150366843Y-79444735D01*
X150317560Y-79692500D01*
X127127000Y-79692500D01*
X127127000Y-77032500D01*
X138152560Y-77032500D01*
X138152560Y-78832500D01*
X138201843Y-79080265D01*
X138342191Y-79290309D01*
X138552235Y-79430657D01*
X138800000Y-79479940D01*
X140600000Y-79479940D01*
X140847765Y-79430657D01*
X141057809Y-79290309D01*
X141198157Y-79080265D01*
X141247440Y-78832500D01*
X141247440Y-77305000D01*
X144602560Y-77305000D01*
X144602560Y-78905000D01*
X144651843Y-79152765D01*
X144792191Y-79362809D01*
X145002235Y-79503157D01*
X145250000Y-79552440D01*
X146850000Y-79552440D01*
X147097765Y-79503157D01*
X147307809Y-79362809D01*
X147448157Y-79152765D01*
X147497440Y-78905000D01*
X147497440Y-77305000D01*
X147448157Y-77057235D01*
X147307809Y-76847191D01*
X147097765Y-76706843D01*
X146850000Y-76657560D01*
X145250000Y-76657560D01*
X145002235Y-76706843D01*
X144792191Y-76847191D01*
X144651843Y-77057235D01*
X144602560Y-77305000D01*
X141247440Y-77305000D01*
X141247440Y-77032500D01*
X141198157Y-76784735D01*
X141057809Y-76574691D01*
X140847765Y-76434343D01*
X140600000Y-76385060D01*
X138800000Y-76385060D01*
X138552235Y-76434343D01*
X138342191Y-76574691D01*
X138201843Y-76784735D01*
X138152560Y-77032500D01*
X127127000Y-77032500D01*
X127127000Y-75767500D01*
X164187560Y-75767500D01*
X164187560Y-77567500D01*
X164236843Y-77815265D01*
X164377191Y-78025309D01*
X164587235Y-78165657D01*
X164835000Y-78214940D01*
X166635000Y-78214940D01*
X166882765Y-78165657D01*
X167092809Y-78025309D01*
X167233157Y-77815265D01*
X167282440Y-77567500D01*
X167282440Y-76123322D01*
X173887000Y-76123322D01*
X173887000Y-76972678D01*
X174212034Y-77757380D01*
X174812620Y-78357966D01*
X175597322Y-78683000D01*
X176446678Y-78683000D01*
X177231380Y-78357966D01*
X177831966Y-77757380D01*
X178157000Y-76972678D01*
X178157000Y-76123322D01*
X177831966Y-75338620D01*
X177231380Y-74738034D01*
X176446678Y-74413000D01*
X175597322Y-74413000D01*
X174812620Y-74738034D01*
X174212034Y-75338620D01*
X173887000Y-76123322D01*
X167282440Y-76123322D01*
X167282440Y-75767500D01*
X167233157Y-75519735D01*
X167092809Y-75309691D01*
X166882765Y-75169343D01*
X166867092Y-75166225D01*
X167036310Y-74997007D01*
X167270000Y-74432830D01*
X167270000Y-73822170D01*
X167036310Y-73257993D01*
X166604507Y-72826190D01*
X166040330Y-72592500D01*
X165429670Y-72592500D01*
X164865493Y-72826190D01*
X164433690Y-73257993D01*
X164200000Y-73822170D01*
X164200000Y-74432830D01*
X164433690Y-74997007D01*
X164602908Y-75166225D01*
X164587235Y-75169343D01*
X164377191Y-75309691D01*
X164236843Y-75519735D01*
X164187560Y-75767500D01*
X127127000Y-75767500D01*
X127127000Y-72852500D01*
X138134928Y-72852500D01*
X138254062Y-73451427D01*
X138593327Y-73959173D01*
X139101073Y-74298438D01*
X139548818Y-74387500D01*
X139851182Y-74387500D01*
X140298927Y-74298438D01*
X140806673Y-73959173D01*
X141145938Y-73451427D01*
X141265072Y-72852500D01*
X141145938Y-72253573D01*
X141126847Y-72225000D01*
X144602560Y-72225000D01*
X144602560Y-73825000D01*
X144651843Y-74072765D01*
X144792191Y-74282809D01*
X145002235Y-74423157D01*
X145250000Y-74472440D01*
X146850000Y-74472440D01*
X147097765Y-74423157D01*
X147307809Y-74282809D01*
X147448157Y-74072765D01*
X147497440Y-73825000D01*
X147497440Y-72225000D01*
X147448157Y-71977235D01*
X147307809Y-71767191D01*
X147097765Y-71626843D01*
X146850000Y-71577560D01*
X145250000Y-71577560D01*
X145002235Y-71626843D01*
X144792191Y-71767191D01*
X144651843Y-71977235D01*
X144602560Y-72225000D01*
X141126847Y-72225000D01*
X140806673Y-71745827D01*
X140298927Y-71406562D01*
X139851182Y-71317500D01*
X139548818Y-71317500D01*
X139101073Y-71406562D01*
X138593327Y-71745827D01*
X138254062Y-72253573D01*
X138134928Y-72852500D01*
X127127000Y-72852500D01*
X127127000Y-70332500D01*
X150301887Y-70332500D01*
X150413260Y-70892409D01*
X150730423Y-71367077D01*
X151205091Y-71684240D01*
X151623667Y-71767500D01*
X151906333Y-71767500D01*
X152324909Y-71684240D01*
X152799577Y-71367077D01*
X153116740Y-70892409D01*
X153228113Y-70332500D01*
X153116740Y-69772591D01*
X152929590Y-69492500D01*
X154762560Y-69492500D01*
X154762560Y-71092500D01*
X154811843Y-71340265D01*
X154952191Y-71550309D01*
X155162235Y-71690657D01*
X155410000Y-71739940D01*
X157010000Y-71739940D01*
X157257765Y-71690657D01*
X157467809Y-71550309D01*
X157592750Y-71363322D01*
X173887000Y-71363322D01*
X173887000Y-72212678D01*
X174212034Y-72997380D01*
X174812620Y-73597966D01*
X175597322Y-73923000D01*
X176446678Y-73923000D01*
X177231380Y-73597966D01*
X177831966Y-72997380D01*
X178157000Y-72212678D01*
X178157000Y-71363322D01*
X177831966Y-70578620D01*
X177231380Y-69978034D01*
X176446678Y-69653000D01*
X175597322Y-69653000D01*
X174812620Y-69978034D01*
X174212034Y-70578620D01*
X173887000Y-71363322D01*
X157592750Y-71363322D01*
X157608157Y-71340265D01*
X157657440Y-71092500D01*
X157657440Y-69492500D01*
X157608157Y-69244735D01*
X157467809Y-69034691D01*
X157257765Y-68894343D01*
X157010000Y-68845060D01*
X155410000Y-68845060D01*
X155162235Y-68894343D01*
X154952191Y-69034691D01*
X154811843Y-69244735D01*
X154762560Y-69492500D01*
X152929590Y-69492500D01*
X152799577Y-69297923D01*
X152324909Y-68980760D01*
X151906333Y-68897500D01*
X151623667Y-68897500D01*
X151205091Y-68980760D01*
X150730423Y-69297923D01*
X150413260Y-69772591D01*
X150301887Y-70332500D01*
X127127000Y-70332500D01*
X127127000Y-60325000D01*
X127117333Y-60276399D01*
X127089803Y-60235197D01*
X127048601Y-60207667D01*
X127000000Y-60198000D01*
X121920000Y-60198000D01*
X121871399Y-60207667D01*
X121830197Y-60235197D01*
X121802667Y-60276399D01*
X121793000Y-60325000D01*
X101092000Y-60325000D01*
X101092000Y-58420000D01*
X133472071Y-58420000D01*
X133618369Y-59155490D01*
X134034991Y-59779009D01*
X134658510Y-60195631D01*
X135208345Y-60305000D01*
X137079655Y-60305000D01*
X137629490Y-60195631D01*
X138253009Y-59779009D01*
X138669631Y-59155490D01*
X138815929Y-58420000D01*
X155472071Y-58420000D01*
X155618369Y-59155490D01*
X156034991Y-59779009D01*
X156658510Y-60195631D01*
X157208345Y-60305000D01*
X159079655Y-60305000D01*
X159629490Y-60195631D01*
X160253009Y-59779009D01*
X160669631Y-59155490D01*
X160815929Y-58420000D01*
X160669631Y-57684510D01*
X160253009Y-57060991D01*
X159629490Y-56644369D01*
X159079655Y-56535000D01*
X157208345Y-56535000D01*
X156658510Y-56644369D01*
X156034991Y-57060991D01*
X155618369Y-57684510D01*
X155472071Y-58420000D01*
X138815929Y-58420000D01*
X138669631Y-57684510D01*
X138253009Y-57060991D01*
X137629490Y-56644369D01*
X137079655Y-56535000D01*
X135208345Y-56535000D01*
X134658510Y-56644369D01*
X134034991Y-57060991D01*
X133618369Y-57684510D01*
X133472071Y-58420000D01*
X101092000Y-58420000D01*
X101092000Y-54165431D01*
X108890000Y-54165431D01*
X108890000Y-55054569D01*
X109230259Y-55876026D01*
X109858974Y-56504741D01*
X110680431Y-56845000D01*
X111569569Y-56845000D01*
X112391026Y-56504741D01*
X113019741Y-55876026D01*
X113360000Y-55054569D01*
X113360000Y-54693322D01*
X162109000Y-54693322D01*
X162109000Y-55542678D01*
X162434034Y-56327380D01*
X163034620Y-56927966D01*
X163819322Y-57253000D01*
X164668678Y-57253000D01*
X165453380Y-56927966D01*
X166053966Y-56327380D01*
X166379000Y-55542678D01*
X166379000Y-54693322D01*
X166869000Y-54693322D01*
X166869000Y-55542678D01*
X167194034Y-56327380D01*
X167794620Y-56927966D01*
X168579322Y-57253000D01*
X169428678Y-57253000D01*
X170213380Y-56927966D01*
X170813966Y-56327380D01*
X171139000Y-55542678D01*
X171139000Y-54693322D01*
X170920341Y-54165431D01*
X174930000Y-54165431D01*
X174930000Y-55054569D01*
X175270259Y-55876026D01*
X175898974Y-56504741D01*
X176720431Y-56845000D01*
X177609569Y-56845000D01*
X178431026Y-56504741D01*
X179059741Y-55876026D01*
X179400000Y-55054569D01*
X179400000Y-54165431D01*
X179059741Y-53343974D01*
X178431026Y-52715259D01*
X177609569Y-52375000D01*
X176720431Y-52375000D01*
X175898974Y-52715259D01*
X175270259Y-53343974D01*
X174930000Y-54165431D01*
X170920341Y-54165431D01*
X170813966Y-53908620D01*
X170213380Y-53308034D01*
X169428678Y-52983000D01*
X168579322Y-52983000D01*
X167794620Y-53308034D01*
X167194034Y-53908620D01*
X166869000Y-54693322D01*
X166379000Y-54693322D01*
X166053966Y-53908620D01*
X165453380Y-53308034D01*
X164668678Y-52983000D01*
X163819322Y-52983000D01*
X163034620Y-53308034D01*
X162434034Y-53908620D01*
X162109000Y-54693322D01*
X113360000Y-54693322D01*
X113360000Y-54165431D01*
X113019741Y-53343974D01*
X112391026Y-52715259D01*
X111569569Y-52375000D01*
X110680431Y-52375000D01*
X109858974Y-52715259D01*
X109230259Y-53343974D01*
X108890000Y-54165431D01*
X101092000Y-54165431D01*
X101092000Y-50927000D01*
X184023000Y-50927000D01*
X184023000Y-149098000D01*
X184023000Y-149098000D01*
G37*
X184023000Y-149098000D02*
X101092000Y-149098000D01*
X101092000Y-143700431D01*
X108890000Y-143700431D01*
X108890000Y-144589569D01*
X109230259Y-145411026D01*
X109858974Y-146039741D01*
X110680431Y-146380000D01*
X111569569Y-146380000D01*
X112391026Y-146039741D01*
X113019741Y-145411026D01*
X113360000Y-144589569D01*
X113360000Y-143700431D01*
X174930000Y-143700431D01*
X174930000Y-144589569D01*
X175270259Y-145411026D01*
X175898974Y-146039741D01*
X176720431Y-146380000D01*
X177609569Y-146380000D01*
X178431026Y-146039741D01*
X179059741Y-145411026D01*
X179400000Y-144589569D01*
X179400000Y-143700431D01*
X179059741Y-142878974D01*
X178431026Y-142250259D01*
X177609569Y-141910000D01*
X176720431Y-141910000D01*
X175898974Y-142250259D01*
X175270259Y-142878974D01*
X174930000Y-143700431D01*
X113360000Y-143700431D01*
X113019741Y-142878974D01*
X112391026Y-142250259D01*
X111569569Y-141910000D01*
X110680431Y-141910000D01*
X109858974Y-142250259D01*
X109230259Y-142878974D01*
X108890000Y-143700431D01*
X101092000Y-143700431D01*
X101092000Y-135255000D01*
X150301887Y-135255000D01*
X150413260Y-135814909D01*
X150730423Y-136289577D01*
X151205091Y-136606740D01*
X151623667Y-136690000D01*
X151906333Y-136690000D01*
X152324909Y-136606740D01*
X152799577Y-136289577D01*
X153116740Y-135814909D01*
X153228113Y-135255000D01*
X153179293Y-135009561D01*
X157950000Y-135009561D01*
X157950000Y-135580439D01*
X158168466Y-136107862D01*
X158572138Y-136511534D01*
X159099561Y-136730000D01*
X159670439Y-136730000D01*
X160197862Y-136511534D01*
X160601534Y-136107862D01*
X160820000Y-135580439D01*
X160820000Y-135009561D01*
X160601534Y-134482138D01*
X160197862Y-134078466D01*
X159670439Y-133860000D01*
X159099561Y-133860000D01*
X158572138Y-134078466D01*
X158168466Y-134482138D01*
X157950000Y-135009561D01*
X153179293Y-135009561D01*
X153116740Y-134695091D01*
X152799577Y-134220423D01*
X152324909Y-133903260D01*
X151906333Y-133820000D01*
X151623667Y-133820000D01*
X151205091Y-133903260D01*
X150730423Y-134220423D01*
X150413260Y-134695091D01*
X150301887Y-135255000D01*
X101092000Y-135255000D01*
X101092000Y-132969561D01*
X143980000Y-132969561D01*
X143980000Y-133540439D01*
X144198466Y-134067862D01*
X144602138Y-134471534D01*
X145129561Y-134690000D01*
X145700439Y-134690000D01*
X146227862Y-134471534D01*
X146631534Y-134067862D01*
X146850000Y-133540439D01*
X146850000Y-132969561D01*
X146631534Y-132442138D01*
X146227862Y-132038466D01*
X145700439Y-131820000D01*
X145129561Y-131820000D01*
X144602138Y-132038466D01*
X144198466Y-132442138D01*
X143980000Y-132969561D01*
X101092000Y-132969561D01*
X101092000Y-129174996D01*
X112980000Y-129174996D01*
X112980000Y-129905004D01*
X113259362Y-130579444D01*
X113775556Y-131095638D01*
X114449996Y-131375000D01*
X115180004Y-131375000D01*
X115854444Y-131095638D01*
X116370638Y-130579444D01*
X116650000Y-129905004D01*
X116650000Y-129174996D01*
X116370638Y-128500556D01*
X115854444Y-127984362D01*
X115427462Y-127807500D01*
X138134928Y-127807500D01*
X138254062Y-128406427D01*
X138593327Y-128914173D01*
X138837763Y-129077500D01*
X138593327Y-129240827D01*
X138254062Y-129748573D01*
X138134928Y-130347500D01*
X138254062Y-130946427D01*
X138593327Y-131454173D01*
X139101073Y-131793438D01*
X139548818Y-131882500D01*
X139851182Y-131882500D01*
X140298927Y-131793438D01*
X140806673Y-131454173D01*
X141145938Y-130946427D01*
X141265072Y-130347500D01*
X141145938Y-129748573D01*
X140806673Y-129240827D01*
X140562237Y-129077500D01*
X140806673Y-128914173D01*
X141145938Y-128406427D01*
X141265072Y-127807500D01*
X141192879Y-127444561D01*
X143980000Y-127444561D01*
X143980000Y-128015439D01*
X144198466Y-128542862D01*
X144602138Y-128946534D01*
X145129561Y-129165000D01*
X145700439Y-129165000D01*
X146227862Y-128946534D01*
X146631534Y-128542862D01*
X146784943Y-128172500D01*
X162917560Y-128172500D01*
X162917560Y-129972500D01*
X162966843Y-130220265D01*
X163107191Y-130430309D01*
X163317235Y-130570657D01*
X163332908Y-130573775D01*
X163163690Y-130742993D01*
X162930000Y-131307170D01*
X162930000Y-131917830D01*
X163163690Y-132482007D01*
X163595493Y-132913810D01*
X164159670Y-133147500D01*
X164770330Y-133147500D01*
X165334507Y-132913810D01*
X165766310Y-132482007D01*
X166000000Y-131917830D01*
X166000000Y-131307170D01*
X165766310Y-130742993D01*
X165597092Y-130573775D01*
X165612765Y-130570657D01*
X165822809Y-130430309D01*
X165963157Y-130220265D01*
X166012440Y-129972500D01*
X166012440Y-129463322D01*
X173887000Y-129463322D01*
X173887000Y-130312678D01*
X174212034Y-131097380D01*
X174812620Y-131697966D01*
X175597322Y-132023000D01*
X176446678Y-132023000D01*
X177231380Y-131697966D01*
X177831966Y-131097380D01*
X178157000Y-130312678D01*
X178157000Y-129463322D01*
X177831966Y-128678620D01*
X177231380Y-128078034D01*
X176446678Y-127753000D01*
X175597322Y-127753000D01*
X174812620Y-128078034D01*
X174212034Y-128678620D01*
X173887000Y-129463322D01*
X166012440Y-129463322D01*
X166012440Y-128172500D01*
X165963157Y-127924735D01*
X165822809Y-127714691D01*
X165612765Y-127574343D01*
X165365000Y-127525060D01*
X163565000Y-127525060D01*
X163317235Y-127574343D01*
X163107191Y-127714691D01*
X162966843Y-127924735D01*
X162917560Y-128172500D01*
X146784943Y-128172500D01*
X146850000Y-128015439D01*
X146850000Y-127444561D01*
X146631534Y-126917138D01*
X146227862Y-126513466D01*
X145700439Y-126295000D01*
X145129561Y-126295000D01*
X144602138Y-126513466D01*
X144198466Y-126917138D01*
X143980000Y-127444561D01*
X141192879Y-127444561D01*
X141145938Y-127208573D01*
X140806673Y-126700827D01*
X140298927Y-126361562D01*
X139851182Y-126272500D01*
X139548818Y-126272500D01*
X139101073Y-126361562D01*
X138593327Y-126700827D01*
X138254062Y-127208573D01*
X138134928Y-127807500D01*
X115427462Y-127807500D01*
X115180004Y-127705000D01*
X114449996Y-127705000D01*
X113775556Y-127984362D01*
X113259362Y-128500556D01*
X112980000Y-129174996D01*
X101092000Y-129174996D01*
X101092000Y-109489996D01*
X112980000Y-109489996D01*
X112980000Y-110220004D01*
X113259362Y-110894444D01*
X113775556Y-111410638D01*
X114449996Y-111690000D01*
X115180004Y-111690000D01*
X115854444Y-111410638D01*
X116370638Y-110894444D01*
X116650000Y-110220004D01*
X116650000Y-109489996D01*
X116370638Y-108815556D01*
X115854444Y-108299362D01*
X115180004Y-108020000D01*
X114449996Y-108020000D01*
X113775556Y-108299362D01*
X113259362Y-108815556D01*
X112980000Y-109489996D01*
X101092000Y-109489996D01*
X101092000Y-88970000D01*
X112967560Y-88970000D01*
X112967560Y-91370000D01*
X113016843Y-91617765D01*
X113157191Y-91827809D01*
X113367235Y-91968157D01*
X113615000Y-92017440D01*
X116015000Y-92017440D01*
X116262765Y-91968157D01*
X116472809Y-91827809D01*
X116613157Y-91617765D01*
X116662440Y-91370000D01*
X116662440Y-88970000D01*
X116613157Y-88722235D01*
X116472809Y-88512191D01*
X116262765Y-88371843D01*
X116015000Y-88322560D01*
X113615000Y-88322560D01*
X113367235Y-88371843D01*
X113157191Y-88512191D01*
X113016843Y-88722235D01*
X112967560Y-88970000D01*
X101092000Y-88970000D01*
X101092000Y-69285000D01*
X112967560Y-69285000D01*
X112967560Y-71685000D01*
X113016843Y-71932765D01*
X113157191Y-72142809D01*
X113367235Y-72283157D01*
X113615000Y-72332440D01*
X116015000Y-72332440D01*
X116262765Y-72283157D01*
X116472809Y-72142809D01*
X116613157Y-71932765D01*
X116662440Y-71685000D01*
X116662440Y-69285000D01*
X116613157Y-69037235D01*
X116472809Y-68827191D01*
X116262765Y-68686843D01*
X116015000Y-68637560D01*
X113615000Y-68637560D01*
X113367235Y-68686843D01*
X113157191Y-68827191D01*
X113016843Y-69037235D01*
X112967560Y-69285000D01*
X101092000Y-69285000D01*
X101092000Y-60325000D01*
X121793000Y-60325000D01*
X121793000Y-125730000D01*
X121802667Y-125778601D01*
X121830197Y-125819803D01*
X121871399Y-125847333D01*
X121920000Y-125857000D01*
X127000000Y-125857000D01*
X127048601Y-125847333D01*
X127089803Y-125819803D01*
X127117333Y-125778601D01*
X127127000Y-125730000D01*
X127127000Y-124295000D01*
X150317560Y-124295000D01*
X150317560Y-125895000D01*
X150366843Y-126142765D01*
X150507191Y-126352809D01*
X150717235Y-126493157D01*
X150965000Y-126542440D01*
X152565000Y-126542440D01*
X152812765Y-126493157D01*
X153022809Y-126352809D01*
X153163157Y-126142765D01*
X153212440Y-125895000D01*
X153212440Y-125135000D01*
X154111887Y-125135000D01*
X154223260Y-125694909D01*
X154540423Y-126169577D01*
X155015091Y-126486740D01*
X155433667Y-126570000D01*
X155716333Y-126570000D01*
X156134909Y-126486740D01*
X156609577Y-126169577D01*
X156926740Y-125694909D01*
X157038113Y-125135000D01*
X156952247Y-124703322D01*
X173887000Y-124703322D01*
X173887000Y-125552678D01*
X174212034Y-126337380D01*
X174812620Y-126937966D01*
X175597322Y-127263000D01*
X176446678Y-127263000D01*
X177231380Y-126937966D01*
X177831966Y-126337380D01*
X178157000Y-125552678D01*
X178157000Y-124703322D01*
X177831966Y-123918620D01*
X177231380Y-123318034D01*
X176446678Y-122993000D01*
X175597322Y-122993000D01*
X174812620Y-123318034D01*
X174212034Y-123918620D01*
X173887000Y-124703322D01*
X156952247Y-124703322D01*
X156926740Y-124575091D01*
X156609577Y-124100423D01*
X156134909Y-123783260D01*
X155716333Y-123700000D01*
X155433667Y-123700000D01*
X155015091Y-123783260D01*
X154540423Y-124100423D01*
X154223260Y-124575091D01*
X154111887Y-125135000D01*
X153212440Y-125135000D01*
X153212440Y-124295000D01*
X153163157Y-124047235D01*
X153022809Y-123837191D01*
X152812765Y-123696843D01*
X152565000Y-123647560D01*
X150965000Y-123647560D01*
X150717235Y-123696843D01*
X150507191Y-123837191D01*
X150366843Y-124047235D01*
X150317560Y-124295000D01*
X127127000Y-124295000D01*
X127127000Y-104630000D01*
X149682560Y-104630000D01*
X149682560Y-106230000D01*
X149731843Y-106477765D01*
X149872191Y-106687809D01*
X150082235Y-106828157D01*
X150330000Y-106877440D01*
X151930000Y-106877440D01*
X152177765Y-106828157D01*
X152387809Y-106687809D01*
X152528157Y-106477765D01*
X152577440Y-106230000D01*
X152577440Y-105144561D01*
X158585000Y-105144561D01*
X158585000Y-105715439D01*
X158803466Y-106242862D01*
X159207138Y-106646534D01*
X159734561Y-106865000D01*
X160305439Y-106865000D01*
X160832862Y-106646534D01*
X161236534Y-106242862D01*
X161455000Y-105715439D01*
X161455000Y-105144561D01*
X161236534Y-104617138D01*
X160832862Y-104213466D01*
X160305439Y-103995000D01*
X159734561Y-103995000D01*
X159207138Y-104213466D01*
X158803466Y-104617138D01*
X158585000Y-105144561D01*
X152577440Y-105144561D01*
X152577440Y-104630000D01*
X152528157Y-104382235D01*
X152387809Y-104172191D01*
X152177765Y-104031843D01*
X151930000Y-103982560D01*
X150330000Y-103982560D01*
X150082235Y-104031843D01*
X149872191Y-104172191D01*
X149731843Y-104382235D01*
X149682560Y-104630000D01*
X127127000Y-104630000D01*
X127127000Y-101970000D01*
X138152560Y-101970000D01*
X138152560Y-103770000D01*
X138201843Y-104017765D01*
X138342191Y-104227809D01*
X138552235Y-104368157D01*
X138800000Y-104417440D01*
X140600000Y-104417440D01*
X140847765Y-104368157D01*
X141057809Y-104227809D01*
X141198157Y-104017765D01*
X141247440Y-103770000D01*
X141247440Y-102070000D01*
X143967560Y-102070000D01*
X143967560Y-103670000D01*
X144016843Y-103917765D01*
X144157191Y-104127809D01*
X144367235Y-104268157D01*
X144615000Y-104317440D01*
X146215000Y-104317440D01*
X146462765Y-104268157D01*
X146672809Y-104127809D01*
X146813157Y-103917765D01*
X146862440Y-103670000D01*
X146862440Y-102070000D01*
X146813157Y-101822235D01*
X146672809Y-101612191D01*
X146462765Y-101471843D01*
X146215000Y-101422560D01*
X144615000Y-101422560D01*
X144367235Y-101471843D01*
X144157191Y-101612191D01*
X144016843Y-101822235D01*
X143967560Y-102070000D01*
X141247440Y-102070000D01*
X141247440Y-101970000D01*
X141198157Y-101722235D01*
X141057809Y-101512191D01*
X140847765Y-101371843D01*
X140600000Y-101322560D01*
X138800000Y-101322560D01*
X138552235Y-101371843D01*
X138342191Y-101512191D01*
X138201843Y-101722235D01*
X138152560Y-101970000D01*
X127127000Y-101970000D01*
X127127000Y-100705000D01*
X163552560Y-100705000D01*
X163552560Y-102505000D01*
X163601843Y-102752765D01*
X163742191Y-102962809D01*
X163952235Y-103103157D01*
X164200000Y-103152440D01*
X166000000Y-103152440D01*
X166247765Y-103103157D01*
X166457809Y-102962809D01*
X166598157Y-102752765D01*
X166647440Y-102505000D01*
X166647440Y-100705000D01*
X166598157Y-100457235D01*
X166457809Y-100247191D01*
X166247765Y-100106843D01*
X166232092Y-100103725D01*
X166401310Y-99934507D01*
X166635000Y-99370330D01*
X166635000Y-98759670D01*
X166401310Y-98195493D01*
X165969507Y-97763690D01*
X165405330Y-97530000D01*
X164794670Y-97530000D01*
X164230493Y-97763690D01*
X163798690Y-98195493D01*
X163565000Y-98759670D01*
X163565000Y-99370330D01*
X163798690Y-99934507D01*
X163967908Y-100103725D01*
X163952235Y-100106843D01*
X163742191Y-100247191D01*
X163601843Y-100457235D01*
X163552560Y-100705000D01*
X127127000Y-100705000D01*
X127127000Y-97790000D01*
X138134928Y-97790000D01*
X138254062Y-98388927D01*
X138593327Y-98896673D01*
X139101073Y-99235938D01*
X139548818Y-99325000D01*
X139851182Y-99325000D01*
X140298927Y-99235938D01*
X140806673Y-98896673D01*
X141145938Y-98388927D01*
X141265072Y-97790000D01*
X141145938Y-97191073D01*
X141011586Y-96990000D01*
X143967560Y-96990000D01*
X143967560Y-98590000D01*
X144016843Y-98837765D01*
X144157191Y-99047809D01*
X144367235Y-99188157D01*
X144615000Y-99237440D01*
X146215000Y-99237440D01*
X146462765Y-99188157D01*
X146672809Y-99047809D01*
X146813157Y-98837765D01*
X146862440Y-98590000D01*
X146862440Y-96990000D01*
X146813157Y-96742235D01*
X146672809Y-96532191D01*
X146462765Y-96391843D01*
X146215000Y-96342560D01*
X144615000Y-96342560D01*
X144367235Y-96391843D01*
X144157191Y-96532191D01*
X144016843Y-96742235D01*
X143967560Y-96990000D01*
X141011586Y-96990000D01*
X140806673Y-96683327D01*
X140298927Y-96344062D01*
X139851182Y-96255000D01*
X139548818Y-96255000D01*
X139101073Y-96344062D01*
X138593327Y-96683327D01*
X138254062Y-97191073D01*
X138134928Y-97790000D01*
X127127000Y-97790000D01*
X127127000Y-95270000D01*
X149666887Y-95270000D01*
X149778260Y-95829909D01*
X150095423Y-96304577D01*
X150570091Y-96621740D01*
X150988667Y-96705000D01*
X151271333Y-96705000D01*
X151689909Y-96621740D01*
X152164577Y-96304577D01*
X152481740Y-95829909D01*
X152593113Y-95270000D01*
X152481740Y-94710091D01*
X152294590Y-94430000D01*
X154127560Y-94430000D01*
X154127560Y-96030000D01*
X154176843Y-96277765D01*
X154317191Y-96487809D01*
X154527235Y-96628157D01*
X154775000Y-96677440D01*
X156375000Y-96677440D01*
X156622765Y-96628157D01*
X156832809Y-96487809D01*
X156973157Y-96277765D01*
X157022440Y-96030000D01*
X157022440Y-94430000D01*
X156973157Y-94182235D01*
X156832809Y-93972191D01*
X156729741Y-93903322D01*
X173887000Y-93903322D01*
X173887000Y-94752678D01*
X174212034Y-95537380D01*
X174812620Y-96137966D01*
X175597322Y-96463000D01*
X176446678Y-96463000D01*
X177231380Y-96137966D01*
X177831966Y-95537380D01*
X178157000Y-94752678D01*
X178157000Y-93903322D01*
X177831966Y-93118620D01*
X177231380Y-92518034D01*
X176446678Y-92193000D01*
X175597322Y-92193000D01*
X174812620Y-92518034D01*
X174212034Y-93118620D01*
X173887000Y-93903322D01*
X156729741Y-93903322D01*
X156622765Y-93831843D01*
X156375000Y-93782560D01*
X154775000Y-93782560D01*
X154527235Y-93831843D01*
X154317191Y-93972191D01*
X154176843Y-94182235D01*
X154127560Y-94430000D01*
X152294590Y-94430000D01*
X152164577Y-94235423D01*
X151689909Y-93918260D01*
X151271333Y-93835000D01*
X150988667Y-93835000D01*
X150570091Y-93918260D01*
X150095423Y-94235423D01*
X149778260Y-94710091D01*
X149666887Y-95270000D01*
X127127000Y-95270000D01*
X127127000Y-89143322D01*
X173887000Y-89143322D01*
X173887000Y-89992678D01*
X174212034Y-90777380D01*
X174812620Y-91377966D01*
X175597322Y-91703000D01*
X176446678Y-91703000D01*
X177231380Y-91377966D01*
X177831966Y-90777380D01*
X178157000Y-89992678D01*
X178157000Y-89143322D01*
X177831966Y-88358620D01*
X177231380Y-87758034D01*
X176446678Y-87433000D01*
X175597322Y-87433000D01*
X174812620Y-87758034D01*
X174212034Y-88358620D01*
X173887000Y-89143322D01*
X127127000Y-89143322D01*
X127127000Y-79692500D01*
X150317560Y-79692500D01*
X150317560Y-81292500D01*
X150366843Y-81540265D01*
X150507191Y-81750309D01*
X150717235Y-81890657D01*
X150965000Y-81939940D01*
X152565000Y-81939940D01*
X152812765Y-81890657D01*
X153022809Y-81750309D01*
X153163157Y-81540265D01*
X153212440Y-81292500D01*
X153212440Y-80207061D01*
X158585000Y-80207061D01*
X158585000Y-80777939D01*
X158803466Y-81305362D01*
X159207138Y-81709034D01*
X159734561Y-81927500D01*
X160305439Y-81927500D01*
X160832862Y-81709034D01*
X161236534Y-81305362D01*
X161455000Y-80777939D01*
X161455000Y-80207061D01*
X161236534Y-79679638D01*
X160832862Y-79275966D01*
X160305439Y-79057500D01*
X159734561Y-79057500D01*
X159207138Y-79275966D01*
X158803466Y-79679638D01*
X158585000Y-80207061D01*
X153212440Y-80207061D01*
X153212440Y-79692500D01*
X153163157Y-79444735D01*
X153022809Y-79234691D01*
X152812765Y-79094343D01*
X152565000Y-79045060D01*
X150965000Y-79045060D01*
X150717235Y-79094343D01*
X150507191Y-79234691D01*
X150366843Y-79444735D01*
X150317560Y-79692500D01*
X127127000Y-79692500D01*
X127127000Y-77032500D01*
X138152560Y-77032500D01*
X138152560Y-78832500D01*
X138201843Y-79080265D01*
X138342191Y-79290309D01*
X138552235Y-79430657D01*
X138800000Y-79479940D01*
X140600000Y-79479940D01*
X140847765Y-79430657D01*
X141057809Y-79290309D01*
X141198157Y-79080265D01*
X141247440Y-78832500D01*
X141247440Y-77305000D01*
X144602560Y-77305000D01*
X144602560Y-78905000D01*
X144651843Y-79152765D01*
X144792191Y-79362809D01*
X145002235Y-79503157D01*
X145250000Y-79552440D01*
X146850000Y-79552440D01*
X147097765Y-79503157D01*
X147307809Y-79362809D01*
X147448157Y-79152765D01*
X147497440Y-78905000D01*
X147497440Y-77305000D01*
X147448157Y-77057235D01*
X147307809Y-76847191D01*
X147097765Y-76706843D01*
X146850000Y-76657560D01*
X145250000Y-76657560D01*
X145002235Y-76706843D01*
X144792191Y-76847191D01*
X144651843Y-77057235D01*
X144602560Y-77305000D01*
X141247440Y-77305000D01*
X141247440Y-77032500D01*
X141198157Y-76784735D01*
X141057809Y-76574691D01*
X140847765Y-76434343D01*
X140600000Y-76385060D01*
X138800000Y-76385060D01*
X138552235Y-76434343D01*
X138342191Y-76574691D01*
X138201843Y-76784735D01*
X138152560Y-77032500D01*
X127127000Y-77032500D01*
X127127000Y-75767500D01*
X164187560Y-75767500D01*
X164187560Y-77567500D01*
X164236843Y-77815265D01*
X164377191Y-78025309D01*
X164587235Y-78165657D01*
X164835000Y-78214940D01*
X166635000Y-78214940D01*
X166882765Y-78165657D01*
X167092809Y-78025309D01*
X167233157Y-77815265D01*
X167282440Y-77567500D01*
X167282440Y-76123322D01*
X173887000Y-76123322D01*
X173887000Y-76972678D01*
X174212034Y-77757380D01*
X174812620Y-78357966D01*
X175597322Y-78683000D01*
X176446678Y-78683000D01*
X177231380Y-78357966D01*
X177831966Y-77757380D01*
X178157000Y-76972678D01*
X178157000Y-76123322D01*
X177831966Y-75338620D01*
X177231380Y-74738034D01*
X176446678Y-74413000D01*
X175597322Y-74413000D01*
X174812620Y-74738034D01*
X174212034Y-75338620D01*
X173887000Y-76123322D01*
X167282440Y-76123322D01*
X167282440Y-75767500D01*
X167233157Y-75519735D01*
X167092809Y-75309691D01*
X166882765Y-75169343D01*
X166867092Y-75166225D01*
X167036310Y-74997007D01*
X167270000Y-74432830D01*
X167270000Y-73822170D01*
X167036310Y-73257993D01*
X166604507Y-72826190D01*
X166040330Y-72592500D01*
X165429670Y-72592500D01*
X164865493Y-72826190D01*
X164433690Y-73257993D01*
X164200000Y-73822170D01*
X164200000Y-74432830D01*
X164433690Y-74997007D01*
X164602908Y-75166225D01*
X164587235Y-75169343D01*
X164377191Y-75309691D01*
X164236843Y-75519735D01*
X164187560Y-75767500D01*
X127127000Y-75767500D01*
X127127000Y-72852500D01*
X138134928Y-72852500D01*
X138254062Y-73451427D01*
X138593327Y-73959173D01*
X139101073Y-74298438D01*
X139548818Y-74387500D01*
X139851182Y-74387500D01*
X140298927Y-74298438D01*
X140806673Y-73959173D01*
X141145938Y-73451427D01*
X141265072Y-72852500D01*
X141145938Y-72253573D01*
X141126847Y-72225000D01*
X144602560Y-72225000D01*
X144602560Y-73825000D01*
X144651843Y-74072765D01*
X144792191Y-74282809D01*
X145002235Y-74423157D01*
X145250000Y-74472440D01*
X146850000Y-74472440D01*
X147097765Y-74423157D01*
X147307809Y-74282809D01*
X147448157Y-74072765D01*
X147497440Y-73825000D01*
X147497440Y-72225000D01*
X147448157Y-71977235D01*
X147307809Y-71767191D01*
X147097765Y-71626843D01*
X146850000Y-71577560D01*
X145250000Y-71577560D01*
X145002235Y-71626843D01*
X144792191Y-71767191D01*
X144651843Y-71977235D01*
X144602560Y-72225000D01*
X141126847Y-72225000D01*
X140806673Y-71745827D01*
X140298927Y-71406562D01*
X139851182Y-71317500D01*
X139548818Y-71317500D01*
X139101073Y-71406562D01*
X138593327Y-71745827D01*
X138254062Y-72253573D01*
X138134928Y-72852500D01*
X127127000Y-72852500D01*
X127127000Y-70332500D01*
X150301887Y-70332500D01*
X150413260Y-70892409D01*
X150730423Y-71367077D01*
X151205091Y-71684240D01*
X151623667Y-71767500D01*
X151906333Y-71767500D01*
X152324909Y-71684240D01*
X152799577Y-71367077D01*
X153116740Y-70892409D01*
X153228113Y-70332500D01*
X153116740Y-69772591D01*
X152929590Y-69492500D01*
X154762560Y-69492500D01*
X154762560Y-71092500D01*
X154811843Y-71340265D01*
X154952191Y-71550309D01*
X155162235Y-71690657D01*
X155410000Y-71739940D01*
X157010000Y-71739940D01*
X157257765Y-71690657D01*
X157467809Y-71550309D01*
X157592750Y-71363322D01*
X173887000Y-71363322D01*
X173887000Y-72212678D01*
X174212034Y-72997380D01*
X174812620Y-73597966D01*
X175597322Y-73923000D01*
X176446678Y-73923000D01*
X177231380Y-73597966D01*
X177831966Y-72997380D01*
X178157000Y-72212678D01*
X178157000Y-71363322D01*
X177831966Y-70578620D01*
X177231380Y-69978034D01*
X176446678Y-69653000D01*
X175597322Y-69653000D01*
X174812620Y-69978034D01*
X174212034Y-70578620D01*
X173887000Y-71363322D01*
X157592750Y-71363322D01*
X157608157Y-71340265D01*
X157657440Y-71092500D01*
X157657440Y-69492500D01*
X157608157Y-69244735D01*
X157467809Y-69034691D01*
X157257765Y-68894343D01*
X157010000Y-68845060D01*
X155410000Y-68845060D01*
X155162235Y-68894343D01*
X154952191Y-69034691D01*
X154811843Y-69244735D01*
X154762560Y-69492500D01*
X152929590Y-69492500D01*
X152799577Y-69297923D01*
X152324909Y-68980760D01*
X151906333Y-68897500D01*
X151623667Y-68897500D01*
X151205091Y-68980760D01*
X150730423Y-69297923D01*
X150413260Y-69772591D01*
X150301887Y-70332500D01*
X127127000Y-70332500D01*
X127127000Y-60325000D01*
X127117333Y-60276399D01*
X127089803Y-60235197D01*
X127048601Y-60207667D01*
X127000000Y-60198000D01*
X121920000Y-60198000D01*
X121871399Y-60207667D01*
X121830197Y-60235197D01*
X121802667Y-60276399D01*
X121793000Y-60325000D01*
X101092000Y-60325000D01*
X101092000Y-58420000D01*
X133472071Y-58420000D01*
X133618369Y-59155490D01*
X134034991Y-59779009D01*
X134658510Y-60195631D01*
X135208345Y-60305000D01*
X137079655Y-60305000D01*
X137629490Y-60195631D01*
X138253009Y-59779009D01*
X138669631Y-59155490D01*
X138815929Y-58420000D01*
X155472071Y-58420000D01*
X155618369Y-59155490D01*
X156034991Y-59779009D01*
X156658510Y-60195631D01*
X157208345Y-60305000D01*
X159079655Y-60305000D01*
X159629490Y-60195631D01*
X160253009Y-59779009D01*
X160669631Y-59155490D01*
X160815929Y-58420000D01*
X160669631Y-57684510D01*
X160253009Y-57060991D01*
X159629490Y-56644369D01*
X159079655Y-56535000D01*
X157208345Y-56535000D01*
X156658510Y-56644369D01*
X156034991Y-57060991D01*
X155618369Y-57684510D01*
X155472071Y-58420000D01*
X138815929Y-58420000D01*
X138669631Y-57684510D01*
X138253009Y-57060991D01*
X137629490Y-56644369D01*
X137079655Y-56535000D01*
X135208345Y-56535000D01*
X134658510Y-56644369D01*
X134034991Y-57060991D01*
X133618369Y-57684510D01*
X133472071Y-58420000D01*
X101092000Y-58420000D01*
X101092000Y-54165431D01*
X108890000Y-54165431D01*
X108890000Y-55054569D01*
X109230259Y-55876026D01*
X109858974Y-56504741D01*
X110680431Y-56845000D01*
X111569569Y-56845000D01*
X112391026Y-56504741D01*
X113019741Y-55876026D01*
X113360000Y-55054569D01*
X113360000Y-54693322D01*
X162109000Y-54693322D01*
X162109000Y-55542678D01*
X162434034Y-56327380D01*
X163034620Y-56927966D01*
X163819322Y-57253000D01*
X164668678Y-57253000D01*
X165453380Y-56927966D01*
X166053966Y-56327380D01*
X166379000Y-55542678D01*
X166379000Y-54693322D01*
X166869000Y-54693322D01*
X166869000Y-55542678D01*
X167194034Y-56327380D01*
X167794620Y-56927966D01*
X168579322Y-57253000D01*
X169428678Y-57253000D01*
X170213380Y-56927966D01*
X170813966Y-56327380D01*
X171139000Y-55542678D01*
X171139000Y-54693322D01*
X170920341Y-54165431D01*
X174930000Y-54165431D01*
X174930000Y-55054569D01*
X175270259Y-55876026D01*
X175898974Y-56504741D01*
X176720431Y-56845000D01*
X177609569Y-56845000D01*
X178431026Y-56504741D01*
X179059741Y-55876026D01*
X179400000Y-55054569D01*
X179400000Y-54165431D01*
X179059741Y-53343974D01*
X178431026Y-52715259D01*
X177609569Y-52375000D01*
X176720431Y-52375000D01*
X175898974Y-52715259D01*
X175270259Y-53343974D01*
X174930000Y-54165431D01*
X170920341Y-54165431D01*
X170813966Y-53908620D01*
X170213380Y-53308034D01*
X169428678Y-52983000D01*
X168579322Y-52983000D01*
X167794620Y-53308034D01*
X167194034Y-53908620D01*
X166869000Y-54693322D01*
X166379000Y-54693322D01*
X166053966Y-53908620D01*
X165453380Y-53308034D01*
X164668678Y-52983000D01*
X163819322Y-52983000D01*
X163034620Y-53308034D01*
X162434034Y-53908620D01*
X162109000Y-54693322D01*
X113360000Y-54693322D01*
X113360000Y-54165431D01*
X113019741Y-53343974D01*
X112391026Y-52715259D01*
X111569569Y-52375000D01*
X110680431Y-52375000D01*
X109858974Y-52715259D01*
X109230259Y-53343974D01*
X108890000Y-54165431D01*
X101092000Y-54165431D01*
X101092000Y-50927000D01*
X184023000Y-50927000D01*
X184023000Y-149098000D01*
G04 #@! TO.N,Net-(D2-Pad2)*
G36*
X126238000Y-115443000D02*
X122682000Y-115443000D01*
X122682000Y-72225000D01*
X123012560Y-72225000D01*
X123012560Y-73825000D01*
X123061843Y-74072765D01*
X123202191Y-74282809D01*
X123412235Y-74423157D01*
X123660000Y-74472440D01*
X125260000Y-74472440D01*
X125507765Y-74423157D01*
X125717809Y-74282809D01*
X125858157Y-74072765D01*
X125907440Y-73825000D01*
X125907440Y-72225000D01*
X125858157Y-71977235D01*
X125717809Y-71767191D01*
X125507765Y-71626843D01*
X125260000Y-71577560D01*
X123660000Y-71577560D01*
X123412235Y-71626843D01*
X123202191Y-71767191D01*
X123061843Y-71977235D01*
X123012560Y-72225000D01*
X122682000Y-72225000D01*
X122682000Y-61087000D01*
X126238000Y-61087000D01*
X126238000Y-115443000D01*
X126238000Y-115443000D01*
G37*
X126238000Y-115443000D02*
X122682000Y-115443000D01*
X122682000Y-72225000D01*
X123012560Y-72225000D01*
X123012560Y-73825000D01*
X123061843Y-74072765D01*
X123202191Y-74282809D01*
X123412235Y-74423157D01*
X123660000Y-74472440D01*
X125260000Y-74472440D01*
X125507765Y-74423157D01*
X125717809Y-74282809D01*
X125858157Y-74072765D01*
X125907440Y-73825000D01*
X125907440Y-72225000D01*
X125858157Y-71977235D01*
X125717809Y-71767191D01*
X125507765Y-71626843D01*
X125260000Y-71577560D01*
X123660000Y-71577560D01*
X123412235Y-71626843D01*
X123202191Y-71767191D01*
X123061843Y-71977235D01*
X123012560Y-72225000D01*
X122682000Y-72225000D01*
X122682000Y-61087000D01*
X126238000Y-61087000D01*
X126238000Y-115443000D01*
G04 #@! TD*
M02*
